<svg width="150" height="150" viewBox="0 0 150 150" fill="none" xmlns="http://www.w3.org/2000/svg">
<path d="M140.217 47.2222H136.957V8.33333C136.957 7.59662 136.613 6.89008 136.001 6.36915C135.39 5.84821 134.56 5.55556 133.696 5.55556C132.831 5.55556 132.001 5.2629 131.39 4.74196C130.778 4.22103 130.435 3.51449 130.435 2.77778C130.435 2.04107 130.091 1.33453 129.48 0.813593C128.868 0.292658 128.039 0 127.174 0H22.8261C21.9613 0 21.1318 0.292658 20.5203 0.813593C19.9088 1.33453 19.5652 2.04107 19.5652 2.77778C19.5652 3.51449 19.2217 4.22103 18.6101 4.74196C17.9986 5.2629 17.1692 5.55556 16.3043 5.55556C15.4395 5.55556 14.6101 5.84821 13.9986 6.36915C13.387 6.89008 13.0435 7.59662 13.0435 8.33333V47.2222H9.78261C7.1881 47.2222 4.69985 48.1002 2.86526 49.663C1.03066 51.2258 0 53.3454 0 55.5556V94.4444C0 96.6546 1.03066 98.7742 2.86526 100.337C4.69985 101.9 7.1881 102.778 9.78261 102.778H13.0435V141.667C13.0435 142.403 13.387 143.11 13.9986 143.631C14.6101 144.152 15.4395 144.444 16.3043 144.444C17.1692 144.444 17.9986 144.737 18.6101 145.258C19.2217 145.779 19.5652 146.486 19.5652 147.222C19.5652 147.959 19.9088 148.665 20.5203 149.186C21.1318 149.707 21.9613 150 22.8261 150H127.174C128.039 150 128.868 149.707 129.48 149.186C130.091 148.665 130.435 147.959 130.435 147.222C130.435 146.486 130.778 145.779 131.39 145.258C132.001 144.737 132.831 144.444 133.696 144.444C134.56 144.444 135.39 144.152 136.001 143.631C136.613 143.11 136.957 142.403 136.957 141.667V102.778H140.217C142.812 102.778 145.3 101.9 147.135 100.337C148.969 98.7742 150 96.6546 150 94.4444V55.5556C150 53.3454 148.969 51.2258 147.135 49.663C145.3 48.1002 142.812 47.2222 140.217 47.2222ZM19.5652 10.6111C20.9398 10.207 22.1884 9.54185 23.2166 8.66597C24.2448 7.7901 25.0256 6.72646 25.5 5.55556H124.5C124.974 6.72646 125.755 7.7901 126.783 8.66597C127.812 9.54185 129.06 10.207 130.435 10.6111V47.2222H19.5652V10.6111ZM130.435 139.389C129.06 139.793 127.812 140.458 126.783 141.334C125.755 142.21 124.974 143.274 124.5 144.444H25.5C25.0256 143.274 24.2448 142.21 23.2166 141.334C22.1884 140.458 20.9398 139.793 19.5652 139.389V102.778H130.435V139.389ZM143.478 94.4444C143.478 95.1812 143.135 95.8877 142.523 96.4086C141.912 96.9296 141.082 97.2222 140.217 97.2222H9.78261C8.91777 97.2222 8.08836 96.9296 7.47683 96.4086C6.86529 95.8877 6.52174 95.1812 6.52174 94.4444V55.5556C6.52174 54.8188 6.86529 54.1123 7.47683 53.5914C8.08836 53.0704 8.91777 52.7778 9.78261 52.7778H140.217C141.082 52.7778 141.912 53.0704 142.523 53.5914C143.135 54.1123 143.478 54.8188 143.478 55.5556V94.4444ZM123.913 19.4444C123.913 20.1812 123.569 20.8877 122.958 21.4086C122.346 21.9296 121.517 22.2222 120.652 22.2222H29.3478C28.483 22.2222 27.6536 21.9296 27.042 21.4086C26.4305 20.8877 26.087 20.1812 26.087 19.4444C26.087 18.7077 26.4305 18.0012 27.042 17.4803C27.6536 16.9593 28.483 16.6667 29.3478 16.6667H120.652C121.517 16.6667 122.346 16.9593 122.958 17.4803C123.569 18.0012 123.913 18.7077 123.913 19.4444ZM117.391 30.5556C117.391 31.2923 117.048 31.9988 116.436 32.5197C115.825 33.0407 114.995 33.3333 114.13 33.3333H35.8696C35.0047 33.3333 34.1753 33.0407 33.5638 32.5197C32.9522 31.9988 32.6087 31.2923 32.6087 30.5556C32.6087 29.8188 32.9522 29.1123 33.5638 28.5914C34.1753 28.0704 35.0047 27.7778 35.8696 27.7778H114.13C114.995 27.7778 115.825 28.0704 116.436 28.5914C117.048 29.1123 117.391 29.8188 117.391 30.5556ZM26.087 119.444C26.087 118.708 26.4305 118.001 27.042 117.48C27.6536 116.959 28.483 116.667 29.3478 116.667H120.652C121.517 116.667 122.346 116.959 122.958 117.48C123.569 118.001 123.913 118.708 123.913 119.444C123.913 120.181 123.569 120.888 122.958 121.409C122.346 121.93 121.517 122.222 120.652 122.222H29.3478C28.483 122.222 27.6536 121.93 27.042 121.409C26.4305 120.888 26.087 120.181 26.087 119.444ZM110.87 130.556C110.87 131.292 110.526 131.999 109.914 132.52C109.303 133.041 108.474 133.333 107.609 133.333H42.3913C41.5265 133.333 40.697 133.041 40.0855 132.52C39.474 131.999 39.1304 131.292 39.1304 130.556C39.1304 129.819 39.474 129.112 40.0855 128.591C40.697 128.07 41.5265 127.778 42.3913 127.778H107.609C108.474 127.778 109.303 128.07 109.914 128.591C110.526 129.112 110.87 129.819 110.87 130.556ZM42.3913 58.3333H35.8696C33.2751 58.3333 30.7868 59.2113 28.9522 60.7741C27.1176 62.3369 26.087 64.4565 26.087 66.6667V83.3333C26.087 85.5435 27.1176 87.6631 28.9522 89.2259C30.7868 90.7887 33.2751 91.6667 35.8696 91.6667H42.3913C44.9858 91.6667 47.4741 90.7887 49.3087 89.2259C51.1432 87.6631 52.1739 85.5435 52.1739 83.3333V66.6667C52.1739 64.4565 51.1432 62.3369 49.3087 60.7741C47.4741 59.2113 44.9858 58.3333 42.3913 58.3333ZM45.6522 83.3333C45.6522 84.07 45.3086 84.7766 44.6971 85.2975C44.0856 85.8185 43.2561 86.1111 42.3913 86.1111H35.8696C35.0047 86.1111 34.1753 85.8185 33.5638 85.2975C32.9522 84.7766 32.6087 84.07 32.6087 83.3333V66.6667C32.6087 65.93 32.9522 65.2234 33.5638 64.7025C34.1753 64.1815 35.0047 63.8889 35.8696 63.8889H42.3913C43.2561 63.8889 44.0856 64.1815 44.6971 64.7025C45.3086 65.2234 45.6522 65.93 45.6522 66.6667V83.3333ZM91.3043 61.1111C91.3043 61.8478 90.9608 62.5544 90.3493 63.0753C89.7377 63.5962 88.9083 63.8889 88.0435 63.8889H78.2609V88.8889C78.2609 89.6256 77.9173 90.3321 77.3058 90.8531C76.6943 91.374 75.8648 91.6667 75 91.6667C74.1352 91.6667 73.3057 91.374 72.6942 90.8531C72.0827 90.3321 71.7391 89.6256 71.7391 88.8889V63.8889H61.9565C61.0917 63.8889 60.2623 63.5962 59.6507 63.0753C59.0392 62.5544 58.6957 61.8478 58.6957 61.1111C58.6957 60.3744 59.0392 59.6679 59.6507 59.1469C60.2623 58.626 61.0917 58.3333 61.9565 58.3333H88.0435C88.9083 58.3333 89.7377 58.626 90.3493 59.1469C90.9608 59.6679 91.3043 60.3744 91.3043 61.1111ZM110.87 58.3333H101.087C100.222 58.3333 99.3927 58.626 98.7812 59.1469C98.1696 59.6679 97.8261 60.3744 97.8261 61.1111V88.8889C97.8261 89.6256 98.1696 90.3321 98.7812 90.8531C99.3927 91.374 100.222 91.6667 101.087 91.6667C101.952 91.6667 102.781 91.374 103.393 90.8531C104.004 90.3321 104.348 89.6256 104.348 88.8889V80.5555H110.87C114.329 80.5555 117.647 79.3849 120.093 77.3012C122.539 75.2174 123.913 72.3913 123.913 69.4444C123.913 66.4976 122.539 63.6714 120.093 61.5877C117.647 59.504 114.329 58.3333 110.87 58.3333ZM110.87 75H104.348V63.8889H110.87C112.599 63.8889 114.258 64.4742 115.481 65.5161C116.704 66.5579 117.391 67.971 117.391 69.4444C117.391 70.9179 116.704 72.3309 115.481 73.3728C114.258 74.4147 112.599 75 110.87 75Z" fill="#4A90E2"/>
</svg>
