<svg width="26" height="26" viewBox="0 0 26 26" fill="none" xmlns="http://www.w3.org/2000/svg">
<g clip-path="url(#clip0_2298_395)">
<path fill-rule="evenodd" clip-rule="evenodd" d="M13 0C9.55219 0 6.24558 1.36964 3.80761 3.80761C1.36964 6.24558 0 9.55219 0 13C0 16.4478 1.36964 19.7544 3.80761 22.1924C6.24558 24.6304 9.55219 26 13 26C16.4478 26 19.7544 24.6304 22.1924 22.1924C24.6304 19.7544 26 16.4478 26 13C26 9.55219 24.6304 6.24558 22.1924 3.80761C19.7544 1.36964 16.4478 0 13 0ZM10.7 8L16 13L10.7 18L10 17.34L14.6 13L10 8.66L10.7 8Z" fill="#EBE6E6"/>
</g>
<defs>
<clipPath id="clip0_2298_395">
<rect width="26" height="26" fill="white"/>
</clipPath>
</defs>
</svg>
