<svg width="51" height="51" viewBox="0 0 51 51" fill="none" xmlns="http://www.w3.org/2000/svg">
<path d="M37.062 1.04418L14.6237 0.9878C13.3133 0.984613 12.2485 2.04446 12.2456 3.35482L12.1465 47.5606C12.1436 48.8706 13.2031 49.935 14.5132 49.9382L44.9744 50.0125C46.2847 50.0156 47.3493 48.9559 47.3523 47.6455L47.4336 11.41L37.062 1.04418Z" fill="white"/>
<path d="M39.3792 11.3987H47.4017L37.0068 1.05615V9.0264C37.0068 10.3366 38.069 11.3987 39.3792 11.3987Z" fill="#2F3562"/>
<path d="M47.4039 11.4016H44.3991L37.0059 4.03999V1.05908L47.4039 11.4016Z" fill="#2F3563"/>
<path d="M47.9925 10.8504L37.6204 0.484449C37.4722 0.336928 37.2722 0.253555 37.0637 0.253156L14.6247 0.196777C14.6224 0.196777 14.62 0.196777 14.6178 0.196777C12.8765 0.196777 11.4579 1.61103 11.4541 3.3527L11.4451 7.35262H9.91579C6.00413 7.35262 2.77539 10.5108 2.77539 14.493C2.77539 18.4258 5.97843 21.6253 9.91579 21.6253H11.4131L11.3552 47.5583C11.3514 49.3019 12.7668 50.7243 14.5112 50.7289L44.9725 50.803C44.9748 50.803 44.9772 50.803 44.9803 50.803C45.822 50.803 46.6143 50.476 47.2111 49.8818C47.8104 49.2853 48.1409 48.4915 48.1424 47.6471L48.2243 11.4117C48.225 11.2013 48.1415 10.9994 47.9925 10.8504ZM45.4852 10.6079H39.3787C38.507 10.6079 37.7974 9.89823 37.7974 9.02605V2.95825L45.4852 10.6079ZM9.91579 20.044C6.85021 20.044 4.35679 17.5537 4.35679 14.4932C4.35679 11.3973 6.86515 8.93421 9.91579 8.93421H11.4415L11.4357 11.5172H9.86718C8.2548 11.5172 6.94364 12.8283 6.94364 14.4403C6.94364 16.0523 8.2548 17.3639 9.86718 17.3639H11.4227L11.4167 20.0441L9.91579 20.044ZM20.1952 15.782C20.1945 15.782 20.1939 15.7824 20.1933 15.7824H13.0077L13.0137 13.0986H20.196C20.6331 13.0986 20.9867 12.7446 20.9867 12.3079C20.9867 11.8712 20.6331 11.5172 20.196 11.5172H13.0172L13.023 8.93421H20.1952C22.4379 8.93421 23.567 10.6462 23.5707 12.3581C23.5747 14.07 22.4533 15.782 20.1952 15.782ZM11.4263 15.7824H9.86718C9.12738 15.7824 8.52514 15.1804 8.52514 14.4403C8.52514 13.7005 9.12748 13.0987 9.86718 13.0987H11.4322L11.4263 15.7824ZM46.0952 48.761C45.7972 49.0584 45.401 49.2216 44.9794 49.2216C44.9786 49.2216 44.9771 49.2216 44.9755 49.2216L14.515 49.1475C13.6424 49.1452 12.9343 48.434 12.9366 47.5622C12.9544 39.6328 12.988 24.554 13.0042 17.3639H20.196C20.197 17.3639 20.1978 17.3633 20.1988 17.3633C23.4996 17.361 25.1503 14.8597 25.1507 12.3583C25.1511 9.8556 23.4993 7.35272 20.1953 7.35272H13.0266L13.0356 3.35669C13.0378 2.4857 13.7468 1.77838 14.6178 1.77838C14.6185 1.77838 14.62 1.77838 14.6208 1.77838L36.2159 1.83266V9.02615C36.2159 10.7705 37.6344 12.1894 39.3787 12.1894H46.641L46.5609 47.6437C46.5601 48.0661 46.3948 48.4629 46.0952 48.761Z" fill="#3A3D3F"/>
<path d="M37.4986 42.5725H27.6161C27.1791 42.5725 26.8254 42.9266 26.8254 43.3632C26.8254 43.7999 27.1792 44.1539 27.6161 44.1539H37.4986C37.9357 44.1539 38.2893 43.7999 38.2893 43.3632C38.2893 42.9266 37.9357 42.5725 37.4986 42.5725ZM24.766 42.5725H18.0163C17.5792 42.5725 17.2256 42.9266 17.2256 43.3632C17.2256 43.7999 17.5792 44.1539 18.0163 44.1539H24.766C25.2031 44.1539 25.5567 43.7999 25.5567 43.3632C25.5567 42.9266 25.203 42.5725 24.766 42.5725ZM41.5634 42.5725H40.3487C39.9116 42.5725 39.558 42.9266 39.558 43.3632C39.558 43.7999 39.9117 44.1539 40.3487 44.1539H41.5633C42.0004 44.1539 42.354 43.7999 42.354 43.3632C42.3541 42.9266 42.0004 42.5725 41.5634 42.5725ZM22.081 35.8174C21.644 35.8174 21.2903 36.1715 21.2903 36.6081C21.2903 37.0448 21.6441 37.3988 22.081 37.3988H32.7543C33.1914 37.3988 33.545 37.0448 33.545 36.6081C33.545 36.1715 33.1913 35.8174 32.7543 35.8174H22.081ZM18.0163 37.3988H19.2309C19.668 37.3988 20.0216 37.0448 20.0216 36.6081C20.0216 36.1715 19.668 35.8174 19.2309 35.8174H18.0163C17.5792 35.8174 17.2256 36.1715 17.2256 36.6081C17.2256 37.0448 17.5792 37.3988 18.0163 37.3988ZM41.5634 35.8174H35.6044C35.1673 35.8174 34.8137 36.1715 34.8137 36.6081C34.8137 37.0448 35.1674 37.3988 35.6044 37.3988H41.5634C42.0005 37.3988 42.3541 37.0448 42.3541 36.6081C42.3541 36.1715 42.0004 35.8174 41.5634 35.8174ZM38.2893 29.8534C38.2893 29.4167 37.9357 29.0627 37.4986 29.0627H27.6161C27.1791 29.0627 26.8254 29.4167 26.8254 29.8534C26.8254 30.2901 27.1792 30.6441 27.6161 30.6441H37.4986C37.9357 30.6441 38.2893 30.2901 38.2893 29.8534ZM18.0163 30.6441H24.766C25.2031 30.6441 25.5567 30.2901 25.5567 29.8534C25.5567 29.4167 25.203 29.0627 24.766 29.0627H18.0163C17.5792 29.0627 17.2256 29.4167 17.2256 29.8534C17.2256 30.2901 17.5792 30.6441 18.0163 30.6441ZM41.5634 29.0627H40.3487C39.9116 29.0627 39.558 29.4167 39.558 29.8534C39.558 30.2901 39.9117 30.6441 40.3487 30.6441H41.5633C42.0004 30.6441 42.354 30.2901 42.354 29.8534C42.354 29.4167 42.0004 29.0627 41.5634 29.0627ZM22.081 23.889H30.3821C30.8192 23.889 31.1728 23.535 31.1728 23.0983C31.1728 22.6616 30.8191 22.3076 30.3821 22.3076H22.081C21.644 22.3076 21.2903 22.6616 21.2903 23.0983C21.2903 23.535 21.6441 23.889 22.081 23.889ZM18.0163 23.889H19.2309C19.668 23.889 20.0216 23.535 20.0216 23.0983C20.0216 22.6616 19.668 22.3076 19.2309 22.3076H18.0163C17.5792 22.3076 17.2256 22.6616 17.2256 23.0983C17.2256 23.535 17.5792 23.889 18.0163 23.889ZM41.5634 22.3076H33.2323C32.7952 22.3076 32.4416 22.6616 32.4416 23.0983C32.4416 23.535 32.7952 23.889 33.2323 23.889H41.5634C42.0005 23.889 42.3541 23.535 42.3541 23.0983C42.3541 22.6616 42.0004 22.3076 41.5634 22.3076Z" fill="#3A3D3F"/>
</svg>
