<svg width="100" height="100" viewBox="0 0 100 100" fill="none" xmlns="http://www.w3.org/2000/svg">
<g clip-path="url(#clip0_1958_3107)">
<path d="M100 12.5V43.7012C99.0885 42.7897 98.112 41.9759 97.0703 41.2598C96.0286 40.5436 94.9219 39.86 93.75 39.209V18.75H87.5V25H81.25V18.75H18.75V25H12.5V18.75H6.25V75H12.5V68.75H18.75V75H53.2715L47.0215 81.25H0V12.5H100ZM87.5 31.25V36.7676C86.4583 36.5072 85.4167 36.3118 84.375 36.1816C83.3333 36.0514 82.2917 35.9701 81.25 35.9375V31.25H87.5ZM18.75 50H12.5V43.75H18.75V50ZM18.75 37.5H12.5V31.25H18.75V37.5ZM12.5 56.25H18.75V62.5H12.5V56.25ZM81.25 43.75C83.8216 43.75 86.2467 44.2383 88.5254 45.2148C90.804 46.1914 92.7897 47.526 94.4824 49.2188C96.1751 50.9115 97.526 52.9134 98.5352 55.2246C99.5443 57.5358 100.033 59.9609 100 62.5C100 65.1042 99.5117 67.5293 98.5352 69.7754C97.5586 72.0215 96.224 74.0072 94.5312 75.7324C92.8385 77.4577 90.8366 78.8086 88.5254 79.7852C86.2142 80.7617 83.7891 81.25 81.25 81.25C79.2969 81.25 77.4089 80.957 75.5859 80.3711C73.763 79.7852 72.0378 78.9062 70.4102 77.7344L49.0723 99.0723C48.4538 99.6908 47.7214 100 46.875 100C46.0286 100 45.2962 99.6908 44.6777 99.0723C44.0592 98.4538 43.75 97.7214 43.75 96.875C43.75 96.0286 44.0592 95.2962 44.6777 94.6777L66.0156 73.3398C64.8763 71.7448 64.0137 70.0358 63.4277 68.2129C62.8418 66.39 62.5326 64.4857 62.5 62.5C62.5 59.9284 62.9883 57.5033 63.9648 55.2246C64.9414 52.946 66.276 50.9603 67.9688 49.2676C69.6615 47.5749 71.6471 46.224 73.9258 45.2148C76.2044 44.2057 78.6458 43.7174 81.25 43.75ZM81.25 75C82.9753 75 84.5866 74.6745 86.084 74.0234C87.5814 73.3724 88.916 72.4772 90.0879 71.3379C91.2598 70.1986 92.1549 68.8802 92.7734 67.3828C93.3919 65.8854 93.7174 64.2578 93.75 62.5C93.75 60.7747 93.4245 59.1634 92.7734 57.666C92.1224 56.1686 91.2272 54.834 90.0879 53.6621C88.9486 52.4902 87.6302 51.5951 86.1328 50.9766C84.6354 50.3581 83.0078 50.0326 81.25 50C79.5247 50 77.9134 50.3255 76.416 50.9766C74.9186 51.6276 73.584 52.5228 72.4121 53.6621C71.2402 54.8014 70.3451 56.1198 69.7266 57.6172C69.1081 59.1146 68.7826 60.7422 68.75 62.5C68.75 64.2253 69.0755 65.8366 69.7266 67.334C70.3776 68.8314 71.2728 70.166 72.4121 71.3379C73.5514 72.5098 74.8698 73.4049 76.3672 74.0234C77.8646 74.6419 79.4922 74.9674 81.25 75Z" fill="#4A90E2"/>
</g>
<defs>
<clipPath id="clip0_1958_3107">
<rect width="100" height="100" fill="white"/>
</clipPath>
</defs>
</svg>
