<svg width="24" height="24" viewBox="0 0 24 24" fill="none" xmlns="http://www.w3.org/2000/svg">
<g clip-path="url(#clip0_1728_27)">
<path d="M1 12C1 4 4 1 12 1C20 1 23 4 23 12C23 20 20 23 12 23C4 23 1 20 1 12Z" fill="white"/>
<path d="M10.8401 7.64999C11.5818 7.46239 12.3556 7.43948 13.1071 7.58287C13.8586 7.72626 14.5696 8.03247 15.1901 8.47999C15.8401 7.87999 16.4501 7.23999 17.0501 6.59999C15.586 5.34697 13.6939 4.7091 11.7701 4.81999C10.4851 4.86792 9.23574 5.25485 8.14862 5.94155C7.06151 6.62824 6.17536 7.59025 5.58008 8.72999L7.83008 10.55C8.06498 9.86205 8.46061 9.24008 8.98411 8.73571C9.50761 8.23134 10.1439 7.85913 10.8401 7.64999Z" fill="#EA4335"/>
<path d="M7.83983 13.46C7.49481 12.5207 7.49481 11.4893 7.83983 10.55L5.57983 8.72998C5.04065 9.73389 4.77185 10.8608 4.79983 12C4.78387 13.1447 5.06282 14.2743 5.60983 15.28L7.85983 13.51C7.85647 13.4922 7.84967 13.4752 7.83983 13.46Z" fill="#FAB908"/>
<path d="M7.86035 13.52L5.61035 15.29C6.48248 16.959 7.97139 18.2219 9.76035 18.81C10.9583 19.2165 12.2392 19.315 13.4852 19.0966C14.7312 18.8782 15.9022 18.3497 16.8904 17.56L14.7704 15.79C14.5244 15.9639 14.2551 16.1019 13.9704 16.2C13.3942 16.4347 12.7767 16.5513 12.1547 16.543C11.5326 16.5347 10.9185 16.4017 10.3487 16.1518C9.77901 15.9019 9.26521 15.5402 8.83778 15.0881C8.41035 14.6361 8.07798 14.1029 7.86035 13.52Z" fill="#34A853"/>
<path d="M17.6799 16.75C18.8961 15.0956 19.4296 13.0369 19.1699 11C16.8166 11 14.4833 11 12.1699 11V13.45C13.5799 13.45 14.9799 13.45 16.3799 13.5C16.1228 14.4233 15.5672 15.2356 14.7999 15.81L16.9199 17.58C17.2009 17.33 17.4556 17.0519 17.6799 16.75Z" fill="#0066D9"/>
</g>
<defs>
<clipPath id="clip0_1728_27">
<rect width="24" height="24" fill="white"/>
</clipPath>
</defs>
</svg>
