<svg width="57" height="57" viewBox="0 0 57 57" fill="none" xmlns="http://www.w3.org/2000/svg">
<path d="M15.4292 23.1986L20.0563 19.3147L23.9349 23.9379L33.1831 16.1792L37.0647 20.8025L23.1924 32.4421L15.4292 23.1986Z" fill="#707070"/>
<path fill-rule="evenodd" clip-rule="evenodd" d="M41.2119 7.07156C45.3726 11.2303 47.8715 16.7647 48.2394 22.6354C48.6074 28.506 46.8189 34.309 43.21 38.9545C43.2563 38.9947 43.3016 39.037 43.3459 39.0812L56.1527 51.8857C56.7025 52.4549 57.0068 53.2172 56.9999 54.0084C56.993 54.7997 56.6756 55.5566 56.116 56.1161C55.5563 56.6756 54.7993 56.993 54.0079 56.9999C53.2165 57.0068 52.454 56.7026 51.8848 56.1529L39.0779 43.3484L38.9511 43.2126C34.0987 46.9757 27.9946 48.7492 21.8808 48.1724C15.7669 47.5955 10.1024 44.7115 6.03983 40.1072C1.97723 35.5028 -0.178374 29.524 0.0115651 23.387C0.201504 17.2501 2.72272 11.4159 7.06229 7.07156C9.30454 4.82961 11.9665 3.05118 14.8962 1.83784C17.8259 0.6245 20.966 0 24.1371 0C27.3082 0 30.4482 0.6245 33.378 1.83784C36.3077 3.05118 38.9696 4.82961 41.2119 7.07156ZM36.9439 36.9477C38.6481 35.2713 40.0034 33.2743 40.9318 31.0716C41.8601 28.869 42.3431 26.5044 42.3528 24.1142C42.3626 21.724 41.8989 19.3555 40.9885 17.1454C40.0781 14.9352 38.7391 12.9272 37.0487 11.237C35.3582 9.5469 33.3498 8.20812 31.1392 7.29792C28.9287 6.38772 26.5598 5.92412 24.1691 5.93385C21.7785 5.94358 19.4134 6.42646 17.2104 7.35463C15.0073 8.28279 13.0099 9.63788 11.3333 11.3417C7.98264 14.7467 6.11348 19.3375 6.13294 24.1142C6.15239 28.8908 8.05888 33.4662 11.4371 36.8438C14.8153 40.2214 19.3916 42.1276 24.1691 42.147C28.9466 42.1665 33.5383 40.2977 36.9439 36.9477Z" fill="#707070"/>
</svg>
