<svg width="75" height="80" viewBox="0 0 75 80" fill="none" xmlns="http://www.w3.org/2000/svg">
<path d="M7.5188 79.5006C5.45113 79.5006 3.6817 78.6854 2.21053 77.0548C0.739349 75.4243 0.00250627 73.4618 0 71.1673V12.834C0 10.5423 0.736842 8.58122 2.21053 6.95066C3.68421 5.32011 5.45363 4.50344 7.5188 4.50066H28.5714C27.3183 6.72288 26.3784 9.04927 25.7519 11.4798C25.1253 13.9104 24.812 16.4451 24.812 19.084C24.812 26.6534 27.1779 33.0604 31.9098 38.3048C36.6416 43.5493 42.3584 46.1701 49.0601 46.1673C50.3759 46.1673 51.6454 46.0632 52.8684 45.8548C54.0915 45.6465 55.297 45.334 56.485 44.9173L67.6692 57.3131V71.1673C67.6692 73.459 66.9336 75.4215 65.4624 77.0548C63.9912 78.6881 62.2206 79.5034 60.1504 79.5006H7.5188ZM69.7368 47.834L58.0827 34.9173C56.7669 35.8895 55.3571 36.6187 53.8534 37.1048C52.3496 37.5909 50.7519 37.834 49.0601 37.834C44.4236 37.834 40.4762 36.0118 37.218 32.3673C33.9599 28.7229 32.3308 24.2951 32.3308 19.084C32.3308 13.8729 33.9762 9.44649 37.2669 5.80483C40.5576 2.16316 44.5514 0.339553 49.2481 0.333997C53.9449 0.328441 57.9398 2.15205 61.2331 5.80483C64.5263 9.45761 66.1704 13.884 66.1654 19.084C66.1654 20.959 65.9148 22.7645 65.4135 24.5007C64.9123 26.2368 64.2857 27.834 63.5338 29.2923L75 42.0007L69.7368 47.834ZM49.2481 29.5007C51.8797 29.5007 54.104 28.4937 55.9211 26.4798C57.7381 24.4659 58.6466 22.0007 58.6466 19.084C58.6466 16.1673 57.7381 13.702 55.9211 11.6882C54.104 9.67427 51.8797 8.66733 49.2481 8.66733C46.6165 8.66733 44.3922 9.67427 42.5752 11.6882C40.7581 13.702 39.8496 16.1673 39.8496 19.084C39.8496 22.0007 40.7581 24.4659 42.5752 26.4798C44.3922 28.4937 46.6165 29.5007 49.2481 29.5007ZM11.2782 62.834H56.391L44.8308 45.7506C44.1416 45.6118 43.4373 45.4381 42.718 45.2298C41.9987 45.0215 41.2932 44.7784 40.6015 44.5007L31.015 58.6673L22.5564 46.1673L11.2782 62.834Z" fill="#4A90E2"/>
</svg>
