<svg width="100" height="100" viewBox="0 0 100 100" fill="none" xmlns="http://www.w3.org/2000/svg">
<path d="M46.1 0.638155C48.2923 -0.104809 50.6877 -0.201668 52.9444 0.361396L53.9 0.638155L92.7889 13.8472C94.7607 14.5169 96.4818 15.6804 97.7516 17.202C99.0215 18.7237 99.7877 20.5409 99.9611 22.4418L100 23.2721V50.2587C99.9998 58.4127 97.5691 66.4154 92.9645 73.422C88.3599 80.4286 81.7522 86.1793 73.8389 90.0669L72.3611 90.7664L53.7278 99.2051C52.7018 99.669 51.5811 99.9362 50.4359 99.9899C49.2907 100.044 48.1456 99.8826 47.0722 99.517L46.2722 99.2051L27.6389 90.7664C19.5867 87.1196 12.771 81.5714 7.91113 74.7073C3.05129 67.8433 0.32767 59.9181 0.0277784 51.7683L0 50.2587V23.2721C3.23058e-05 21.3656 0.597926 19.4984 1.72408 17.8877C2.85023 16.2771 4.45831 14.9893 6.36111 14.1742L7.21111 13.8472L46.1 0.638155ZM50 10.0631L11.1111 23.2721V50.2587C11.1113 56.5739 12.9859 62.773 16.5386 68.2068C20.0914 73.6406 25.1917 78.1094 31.3056 81.1452L32.6111 81.7641L50 89.6392L67.3889 81.7641C73.6263 78.9399 78.9105 74.6485 82.6881 69.3394C86.4658 64.0303 88.5979 57.8989 88.8611 51.5872L88.8889 50.2587V23.2721L50 10.0631ZM69.0722 33.0141C70.072 32.1116 71.4135 31.5876 72.8243 31.5486C74.2352 31.5096 75.6095 31.9584 76.6682 32.804C77.7269 33.6495 78.3906 34.8284 78.5244 36.1011C78.6583 37.3738 78.2523 38.6449 77.3889 39.6563L76.9278 40.1293L47.85 66.4719C46.7908 67.4311 45.3796 68.0046 43.8843 68.0834C42.389 68.1623 40.9138 67.741 39.7389 66.8996L39.2056 66.4719L25.85 54.3749C24.843 53.4715 24.2554 52.2536 24.2073 50.9705C24.1593 49.6875 24.6544 48.4363 25.5915 47.4731C26.5285 46.5099 27.8366 45.9076 29.2479 45.7893C30.6592 45.671 32.0671 46.0458 33.1833 46.837L33.7056 47.2546L43.5278 56.1512L69.0722 33.0141Z" fill="#43C721"/>
</svg>
