<svg width="54" height="54" viewBox="0 0 54 54" fill="none" xmlns="http://www.w3.org/2000/svg">
<path d="M27.0005 15.0848C25.7092 15.0848 24.6527 14.0282 24.6527 12.7369V2.64128C24.6527 1.34998 25.7092 0.293457 27.0005 0.293457C28.2918 0.293457 29.3483 1.34998 29.3483 2.64128V12.7369C29.3483 14.0282 28.2918 15.0848 27.0005 15.0848ZM20.0157 17.3739C21.0722 16.6108 21.307 15.1435 20.544 14.0869L14.557 5.92824C13.794 4.87172 12.3266 4.63694 11.2701 5.39998C10.2135 6.16302 9.97875 7.63041 10.7418 8.68694L16.6701 16.8456C17.1396 17.4913 17.844 17.7848 18.5483 17.7848C19.0766 17.8435 19.6048 17.6674 20.0157 17.3739ZM15.6722 23.3022C16.0831 22.0695 15.3787 20.7195 14.1461 20.3674L4.52005 17.2565C3.28744 16.8456 1.93744 17.55 1.58527 18.7826C1.1744 19.9565 1.87875 21.3065 3.11136 21.7174L12.7374 24.8282C12.9722 24.8869 13.207 24.9456 13.4418 24.9456C14.4396 24.9456 15.3201 24.3 15.6722 23.3022ZM4.52005 36.7435L14.1461 33.6326C15.3787 33.2217 16.0831 31.9304 15.6722 30.6978C15.2614 29.4652 13.9701 28.8195 12.7374 29.1717L3.11136 32.2826C1.87875 32.6935 1.1744 33.9848 1.58527 35.2174C1.87875 36.2152 2.81788 36.8608 3.8157 36.8608C4.05049 36.8608 4.28527 36.8608 4.52005 36.7435ZM14.557 48.0717L20.544 39.913C21.307 38.8565 21.0722 37.3891 20.0157 36.6261C18.9592 35.863 17.4918 36.0978 16.7287 37.1543L10.8005 45.313C10.0374 46.3695 10.2722 47.8369 11.3287 48.6C11.7396 48.8935 12.2092 49.0695 12.6787 49.0695C13.3831 49.0695 14.0874 48.7174 14.557 48.0717ZM29.3483 51.3587V41.263C29.3483 39.9717 28.2918 38.9152 27.0005 38.9152C25.7092 38.9152 24.6527 39.9717 24.6527 41.263V51.3587C24.6527 52.65 25.7092 53.7065 27.0005 53.7065C28.2918 53.7065 29.3483 52.65 29.3483 51.3587ZM42.7309 48.6C43.7874 47.8369 44.0222 46.3695 43.2592 45.313L37.2722 37.1543C36.5092 36.0978 35.0418 35.863 33.9853 36.6261C32.9287 37.3891 32.694 38.8565 33.457 39.913L39.3853 48.0717C39.8548 48.7174 40.5592 49.0108 41.2635 49.0108C41.7918 49.0695 42.3201 48.8935 42.7309 48.6ZM52.4157 35.2761C52.8266 34.0435 52.1222 32.6935 50.8896 32.3413L41.2635 29.2304C40.0309 28.8195 38.6809 29.5239 38.3288 30.7565C37.9179 31.9891 38.6222 33.3391 39.8548 33.6913L49.4809 36.8022C49.7157 36.8608 49.9505 36.9195 50.1853 36.9195C51.1831 36.8608 52.1222 36.2152 52.4157 35.2761ZM41.2635 24.8282L50.8896 21.7174C52.1222 21.3065 52.8266 20.0152 52.4157 18.7826C52.0048 17.55 50.7135 16.9043 49.4809 17.2565L39.8548 20.3674C38.6222 20.7782 37.9179 22.0695 38.3288 23.3022C38.6222 24.3 39.5614 24.9456 40.5592 24.9456C40.794 24.9456 41.0288 24.8869 41.2635 24.8282ZM37.2722 16.8456L43.2005 8.68694C43.9635 7.63041 43.7287 6.16302 42.6722 5.39998C41.6157 4.63694 40.1483 4.87172 39.3853 5.92824L33.457 14.0869C32.694 15.1435 32.9287 16.6108 33.9853 17.3739C34.3961 17.6674 34.8657 17.8435 35.3353 17.8435C36.0983 17.8435 36.8027 17.4913 37.2722 16.8456Z" fill="#2E3682"/>
</svg>
