<svg width="57" height="57" viewBox="0 0 57 57" fill="none" xmlns="http://www.w3.org/2000/svg">
<g clip-path="url(#clip0_601_49)">
<path d="M26.847 30.8406L36.9218 20.7587C37.253 20.4279 37.6461 20.1656 38.0787 19.9868C38.5113 19.808 38.9749 19.7161 39.443 19.7165C39.911 19.7168 40.3745 19.8093 40.8068 19.9888C41.2392 20.1682 41.6319 20.431 41.9627 20.7623C42.2934 21.0935 42.5557 21.4866 42.7346 21.9192C42.9134 22.3518 43.0052 22.8154 43.0049 23.2835C43.0046 23.7516 42.9121 24.215 42.7326 24.6473C42.5532 25.0797 42.2904 25.4724 41.9591 25.8032L29.3657 38.3966C29.0351 38.7281 28.6423 38.9911 28.21 39.1707C27.7776 39.3503 27.3141 39.4429 26.846 39.4432C26.3778 39.4436 25.9141 39.3516 25.4815 39.1726C25.0489 38.9937 24.6558 38.7312 24.3248 38.4002L16.7723 30.8477C16.4318 30.5193 16.1601 30.1264 15.9731 29.6919C15.7861 29.2574 15.6875 28.79 15.683 28.317C15.6786 27.8439 15.7684 27.3748 15.9472 26.9368C16.126 26.4989 16.3903 26.101 16.7245 25.7662C17.0588 25.4315 17.4564 25.1667 17.894 24.9873C18.3317 24.8078 18.8008 24.7174 19.2738 24.7211C19.7468 24.7249 20.2144 24.8228 20.6491 25.0092C21.0839 25.1956 21.4772 25.4667 21.8061 25.8067L26.847 30.8406ZM28.5 57C20.9413 57 13.6922 53.9973 8.34746 48.6525C3.00267 43.3078 0 36.0587 0 28.5C0 20.9413 3.00267 13.6922 8.34746 8.34746C13.6922 3.00267 20.9413 0 28.5 0C36.0587 0 43.3078 3.00267 48.6525 8.34746C53.9973 13.6922 57 20.9413 57 28.5C57 36.0587 53.9973 43.3078 48.6525 48.6525C43.3078 53.9973 36.0587 57 28.5 57ZM28.5 49.875C31.307 49.875 34.0865 49.3221 36.6799 48.2479C39.2732 47.1737 41.6296 45.5993 43.6144 43.6144C45.5993 41.6296 47.1737 39.2732 48.2479 36.6799C49.3221 34.0865 49.875 31.307 49.875 28.5C49.875 25.693 49.3221 22.9135 48.2479 20.3201C47.1737 17.7268 45.5993 15.3704 43.6144 13.3856C41.6296 11.4007 39.2732 9.82627 36.6799 8.75208C34.0865 7.67788 31.307 7.125 28.5 7.125C22.831 7.125 17.3942 9.377 13.3856 13.3856C9.377 17.3942 7.125 22.831 7.125 28.5C7.125 34.169 9.377 39.6058 13.3856 43.6144C17.3942 47.623 22.831 49.875 28.5 49.875Z" fill="#4A90E2"/>
</g>
<defs>
<clipPath id="clip0_601_49">
<rect width="57" height="57" fill="white"/>
</clipPath>
</defs>
</svg>
