<svg width="547" height="547" viewBox="0 0 547 547" fill="none" xmlns="http://www.w3.org/2000/svg">
<path fill-rule="evenodd" clip-rule="evenodd" d="M262.233 116.133C484.803 110.311 506.052 273.951 459.325 275.28C369.025 277.849 363.083 327.456 303.576 382.393C207.464 471.132 94.3625 476.198 101.11 244.863C103.947 147.773 171.923 118.494 262.233 116.133Z" fill="#F5F2FD"/>
<path fill-rule="evenodd" clip-rule="evenodd" d="M416.694 296.927C481.007 282.566 493.381 311.474 479.883 314.509C453.799 320.374 457.353 329.438 439.176 343.938C412.65 365.099 382.045 356.813 374.865 330.286C370.084 312.613 390.599 302.754 416.694 296.927Z" fill="#F5F2FD"/>
<path d="M394.492 361.814C390.244 360.585 386.437 359.388 382.484 357.739C377.342 355.718 372.818 352.344 367.796 350.084C363.013 347.785 357.792 346.863 352.81 345.139C350.08 344.315 347.132 342.812 344.087 341.919C345.173 341.612 346.306 341.28 347.426 340.985C348.122 340.824 348.831 340.627 349.493 340.454C350.485 340.951 351.5 341.396 352.537 341.789C354.822 342.7 357.166 343.552 359.563 344.14C365.08 345.406 370.696 346.385 376.414 346.636C382.442 346.752 388.162 345.034 393.907 344.772C395.813 344.708 397.768 344.942 399.557 344.999C399.864 344.984 400.257 344.718 400.222 344.385C399.964 343.933 399.333 343.796 398.911 343.489C394.837 340.994 390.368 339.206 385.57 338.912C379.553 338.438 373.607 339.716 367.934 338.356C366.434 338.076 364.953 337.698 363.502 337.224C365.618 336.228 367.746 335.196 369.799 334.058C373.259 332.12 376.451 329.648 379.728 327.366C384.491 323.95 389.537 320.913 393.876 316.869C394.516 316.327 396.071 314.775 394.354 314.944C392.135 315.583 389.955 316.436 387.707 316.944C374.394 318.851 362.106 325.17 352.813 334.891C351.501 336.286 350.244 337.74 349.198 339.347C349.124 339.438 349.063 339.539 349.019 339.647C346.858 340.226 344.754 340.864 342.602 341.526C342.523 341.539 342.476 341.563 342.397 341.575C341.596 341.821 340.795 342.066 340.028 342.323C340.599 341.435 341.207 340.44 341.688 339.923C343.182 338.109 344.614 337.238 346.35 335.709C350.568 331.904 354.271 327.197 356.305 321.752C358.187 316.856 360.254 312.629 363.231 308.273C364.65 304.062 348.325 320.196 347.544 320.93C343.847 324.313 341.451 328.95 339.497 333.619C338.572 336.072 337.83 338.87 336.715 340.895C336.229 341.973 335.464 342.874 334.89 343.881C334.888 343.937 334.893 343.993 334.907 344.048C333.201 344.622 331.503 345.281 329.818 345.903C329.772 345.928 329.738 345.916 329.692 345.94C328.912 346.233 328.133 346.526 327.374 346.866C327.411 346.759 327.415 346.639 327.452 346.532C327.605 345.927 327.832 345.344 328.128 344.796C331.574 339.196 335.964 334.245 339.687 328.822C341.655 325.966 343.614 323.027 344.892 319.771C345.825 317.402 346.28 314.344 347.27 312.355C348.493 310.126 349.961 308.062 351.451 306.046C351.655 305.674 353.117 304.171 353.495 303.297C353.685 301.876 351.714 303.324 351.153 303.531C346.052 306.508 341.54 310.614 337.914 315.428C335.501 318.371 333.165 321.421 331.54 324.918C328.559 330.919 327.382 338.349 324.638 343.991C323.819 345.63 322.818 347.171 321.653 348.585C321.407 348.861 321.48 349.087 321.682 349.157C319.511 350.094 317.394 351.09 315.266 352.122C315.808 348.812 317.815 345.407 319.681 342.195C321.88 338.455 323.801 334.537 325.688 330.609C326.939 327.867 328.101 325.054 328.711 322.09C329.508 317.502 329.611 312.956 330.669 308.701C331.02 307.325 331.473 305.977 332.026 304.669C332.238 304.059 332.676 303.447 332.525 302.792C332.377 302.459 331.919 302.582 331.664 302.775C331.033 303.401 330.621 304.263 330.045 304.948C328.229 307.254 325.806 310.555 323.954 313.29C320.153 319.048 316.689 325.244 315.077 332.081C313.88 337.173 313.892 342.804 312.886 347.56C312.556 349.495 312.246 351.478 311.331 353.251C311.307 353.323 311.223 353.455 311.236 353.419C311.161 353.635 310.927 353.875 311 354.101C311.008 354.119 311.02 354.135 311.035 354.147C311.051 354.159 311.069 354.168 311.088 354.172C308.244 355.639 305.463 357.249 302.703 358.906C302.739 358.477 302.673 358.012 302.789 357.57C302.86 356.71 303.252 355.359 303.616 354.199C304.585 351.399 306.055 348.894 307.153 345.938C309.529 340.49 309.688 334.476 310.225 328.674C310.748 322.264 310.225 315.934 310.168 309.564C310.193 308.49 310.274 307.418 310.412 306.353L310.449 306.245C310.692 305.168 310.88 304.079 311.013 302.983C311.095 302.529 310.556 302.343 310.242 302.596C309.781 302.839 309.843 303.423 309.728 303.865C309.555 304.69 309.463 305.502 309.37 306.313C308.673 309.528 307.593 312.973 306.546 316.107C304.568 321.169 301.849 325.976 300.566 331.319C299.433 335.791 299.767 340.487 300.449 344.943C300.889 347.266 301.427 348.979 301.263 351.414C301.262 353.705 301.099 355.698 300.563 357.683C300.311 358.52 300.004 359.298 299.685 360.112C299.668 360.162 299.664 360.215 299.672 360.267C299.68 360.319 299.701 360.368 299.733 360.41C299.769 360.443 299.812 360.468 299.858 360.484C299.904 360.5 299.953 360.506 300.002 360.503C298.055 361.674 296.122 362.867 294.203 364.083C294.625 363.41 294.984 362.7 295.276 361.962C296.555 359.029 296.946 355.828 297.359 352.675C297.898 348.722 298.008 344.701 297.241 340.819C296.67 337.567 295.55 334.487 294.807 331.296C293.992 327.553 293.583 323.733 293.587 319.902C293.595 319.694 293.617 319.486 293.651 319.281C293.77 318.719 293.876 318.193 293.949 317.656C293.101 316.84 292.732 317.797 292.58 319.433C291.819 323.269 290.392 327.718 290.009 331.766C289.581 337.686 290.261 343.669 291.529 349.373C292.213 352.624 293.79 355.581 293.844 358.694C293.878 360.555 293.382 361.99 292.791 363.916C292.738 364.179 292.479 364.491 292.686 364.764L292.753 364.787C292.723 364.859 292.709 364.936 292.712 365.014C283.958 370.706 275.578 377.17 268.16 384.772C267.246 385.781 266.285 386.815 265.425 387.884C265.243 388.303 265.748 388.478 266.07 388.308C267.166 387.321 268.033 386.013 269.107 384.978C277.482 376.462 286.98 369.38 297.181 363.104C300.433 365.796 302.874 369.415 306.009 372.227C312.096 377.509 320.248 379.004 327.383 382.237C328.102 382.445 329.248 383.163 329.764 382.217C329.785 382.154 329.787 382.086 329.768 382.022C329.75 381.958 329.713 381.902 329.662 381.86C329.206 381.541 328.714 381.331 328.234 381.084C325.396 379.7 323.296 377.928 321.008 375.609C320.205 374.769 319.391 373.965 318.564 373.196C319.731 373.962 320.957 374.667 322.182 375.373C325.966 377.727 330.669 379.274 334.535 380.411C338.39 381.884 341.946 384.04 345.034 386.777C345.746 387.225 346.401 388.054 347.237 388.143C348.563 387.798 347.424 386.841 346.93 386.308C342.798 382.346 339.23 377.736 334.698 374.278C332.067 372.403 329.578 371.1 327.225 369.08C324.674 367.193 322.503 364.753 319.811 363.058C316.348 360.975 312.267 360.568 308.891 358.997C307.918 358.54 307.197 358.01 306.477 357.479C309.015 356.026 311.528 354.645 314.13 353.335L315.952 354.93C319.266 358.207 323.109 360.823 327.086 363.164C330.182 364.999 333.619 366.068 336.549 368.167C342.959 372.516 348.204 379.796 355.022 384.165C356.745 385.284 358.386 386.535 360.134 387.582C360.849 387.91 361.857 388.701 362.55 387.896C362.829 387.309 362.079 386.969 361.784 386.626C360.792 385.68 359.766 384.722 358.892 383.656C354.399 378.122 350.341 372.096 344.795 367.645C338.924 362.719 332.748 358.13 325.852 354.86C323.304 353.616 320.731 352.123 317.819 352.04C317.486 352.042 317.154 352.021 316.824 351.976C319.275 350.775 321.802 349.68 324.384 348.645C325.176 348.316 325.956 348.023 326.748 347.694C328.213 349.126 329.126 351.17 330.858 352.372C336.613 356.655 342.988 359.906 349.674 362.259C360.181 366.096 370.509 370.996 381.808 371.892C382.736 371.932 383.7 372.306 384.627 372.024C385.933 371.19 383.621 370.791 383.107 370.533C381.201 369.833 379.851 369.487 377.881 368.644C375.716 367.493 373.648 366.174 371.533 364.88C366.001 361.478 360.485 357.922 354.458 355.515C348.159 353.134 342.032 351.777 336.057 348.785C334.268 347.965 332.537 347.085 330.844 346.097C333.883 344.938 336.898 343.851 339.988 342.871C340.091 343.228 340.684 343.474 340.925 343.758C343.081 345.589 345.736 346.629 348.166 347.992C351.975 350.275 355.567 352.964 359.579 354.876C365.838 357.484 371.905 359.664 378.654 361.074C382.888 362.017 387.202 362.948 391.591 362.899C392.319 363.192 395.648 362.938 394.492 361.814ZM304.321 359.024C304.342 359.072 304.376 359.083 304.397 359.131C304.419 359.179 305.006 359.985 304.799 359.712C305.851 361.684 307.296 363.389 308.766 365.023C309.028 365.355 309.302 365.651 309.577 365.947C307.021 364.316 304.216 363.114 301.272 362.39C300.62 362.205 300.103 362.066 299.598 361.891C301.147 360.9 302.717 359.956 304.321 359.024Z" fill="url(#paint0_linear_2298_2021)"/>
<path d="M351.476 267.864C347.326 270.894 343.534 273.567 339.292 276.167C333.867 279.603 327.894 281.934 322.38 285.165C317.02 288.18 312.36 292.158 307.281 295.589C304.587 297.521 301.219 299.341 298.235 301.508C298.829 300.464 299.44 299.37 300.068 298.303C300.476 297.649 300.866 296.969 301.24 296.338C302.374 295.724 303.473 295.057 304.555 294.364C306.975 292.843 309.396 291.247 311.659 289.492C316.801 285.414 321.803 281.128 326.334 276.441C331.001 271.436 334.054 265.894 338.22 260.961C339.62 259.335 341.281 257.797 342.683 256.321C342.904 256.058 343.004 255.612 342.726 255.497C342.19 255.518 341.608 255.987 341.058 256.208C336.088 258.543 331.348 261.516 327.483 265.413C322.556 270.254 319.002 275.794 313.67 279.962C312.471 280.998 310.876 282.189 309.452 283.188C310.311 280.981 311.152 278.749 311.855 276.534C313.026 272.792 313.592 269.042 314.366 265.303C315.416 259.827 316.966 254.278 317.222 248.884C317.3 248.112 317.314 246.136 316.137 247.649C314.933 249.787 313.918 251.985 312.592 254.091C304.123 265.75 299.3 278.958 299.58 291.141C299.632 292.846 299.771 294.531 300.184 296.105C300.195 296.203 300.225 296.299 300.274 296.385C299.068 298.448 297.949 300.49 296.812 302.582C296.761 302.654 296.744 302.703 296.693 302.776C296.269 303.554 295.845 304.332 295.455 305.087C295.222 304.223 294.936 303.282 294.912 302.654C294.684 300.613 295.117 299.035 295.285 296.916C295.629 291.727 294.902 286.58 292.355 282.512C290.105 278.81 288.496 275.243 287.483 270.857C285.395 267.84 285.124 288.53 285.082 289.504C284.818 294.071 286.484 298.091 288.509 301.756C289.651 303.596 291.191 305.432 291.866 307.246C292.307 308.121 292.404 309.152 292.724 310.071C292.794 310.1 292.811 310.126 292.863 310.129C291.999 311.809 291.204 313.519 290.392 315.202C290.376 315.251 290.341 315.275 290.324 315.324C289.952 316.105 289.58 316.886 289.259 317.669C289.207 317.591 289.12 317.537 289.067 317.459C288.729 317.068 288.461 316.622 288.276 316.139C286.683 310.82 286.295 304.991 285.046 299.516C284.395 296.626 283.673 293.708 282.196 291.225C281.124 289.414 279.171 287.706 278.427 286.014C277.681 284.021 277.245 281.894 276.86 279.77C276.736 279.438 276.716 277.559 276.346 276.863C275.422 276.087 275.014 278.368 274.743 278.93C273.107 284.499 272.766 290.064 273.631 295.193C274.011 298.493 274.528 301.776 275.923 304.656C278.17 309.759 282.862 313.969 285.019 318.717C285.638 320.148 286.038 321.663 286.206 323.213C286.226 323.54 286.452 323.577 286.657 323.438C285.712 325.665 284.854 327.872 284.013 330.104C281.937 328.214 280.902 325.054 279.904 322.096C278.762 318.629 277.277 315.319 275.757 312.032C274.645 309.794 273.413 307.599 271.649 305.801C268.805 303.144 265.466 301.085 263.07 298.352C262.304 297.463 261.633 296.495 261.071 295.465C260.773 295.023 260.645 294.39 260.039 294.232C259.676 294.212 259.421 294.649 259.372 294.947C259.363 295.748 259.699 296.467 259.776 297.247C260.13 299.77 260.77 303.235 261.421 305.973C262.862 311.66 264.889 317.252 268.804 321.57C271.723 324.782 275.965 327.215 278.777 330.121C279.98 331.238 281.236 332.357 281.874 333.894C281.909 333.946 281.945 334.073 281.927 334.047C282.033 334.203 282.036 334.504 282.261 334.541C282.305 334.541 282.348 334.526 282.382 334.497C281.324 337.52 280.422 340.55 279.572 343.583C279.276 343.367 278.877 343.22 278.632 342.932C278.04 342.499 277.322 341.584 276.726 340.776C275.357 338.749 274.59 336.429 273.203 334.225C270.911 329.87 266.511 327.128 262.558 324.16C258.136 320.942 252.98 318.635 248.148 315.92C247.369 315.44 246.624 314.906 245.919 314.322L245.866 314.244C245.236 313.569 244.56 312.938 243.842 312.357C243.563 312.091 243.014 312.462 242.966 312.835C242.798 313.327 243.284 313.529 243.529 313.817C244.022 314.304 244.547 314.759 245.098 315.179C246.985 317.159 248.755 319.558 250.316 321.796C252.619 325.651 254.167 330.015 257.209 333.41C259.71 336.299 263.495 338.056 267.363 339.417C269.443 340.056 271.139 340.347 272.845 341.542C274.566 342.536 275.942 343.537 277.027 344.847C277.447 345.421 277.834 346.019 278.185 346.638C278.216 346.675 278.257 346.703 278.303 346.719C278.348 346.735 278.398 346.737 278.445 346.727C278.553 346.692 278.648 346.628 278.72 346.541C278.124 348.674 277.553 350.812 277.006 352.958C276.824 352.32 276.563 351.709 276.226 351.138C274.992 348.793 272.884 347.077 270.827 345.363C268.265 343.196 265.325 341.36 261.824 340.319C258.946 339.387 255.78 338.99 252.817 338.229C249.497 337.336 246.307 336.019 243.324 334.31C243.176 334.215 243.036 334.107 242.906 333.987C242.591 333.652 242.259 333.333 241.911 333.032C240.653 333.39 241.093 334.115 242.207 334.951C244.512 337.254 246.773 340.38 249.525 342.457C253.65 345.385 258.665 347.408 263.916 348.819C266.88 349.656 270.301 349.616 272.682 350.921C274.106 351.699 274.808 352.739 275.807 354.07C275.964 354.228 276.003 354.581 276.365 354.525L276.433 354.479C276.465 354.537 276.513 354.583 276.573 354.612C274.202 364.423 272.696 374.255 272.777 383.773C272.841 384.978 272.889 386.233 273.039 387.418C273.215 387.753 273.73 387.405 273.847 387.061C273.937 385.714 273.613 384.419 273.651 383.069C273.61 372.352 275.501 361.313 278.53 350.036C283.025 348.477 287.599 347.999 292.095 346.59C300.689 343.776 308.004 337.587 315.854 333.005C316.557 332.492 317.968 331.843 317.648 330.999C317.605 330.952 317.548 330.92 317.486 330.908C317.424 330.896 317.359 330.904 317.302 330.931C316.717 331.175 316.184 331.496 315.634 331.792C312.438 333.572 309.511 334.565 306.03 335.479C304.789 335.787 303.565 336.121 302.359 336.481C303.821 335.835 305.283 335.113 306.744 334.391C311.388 332.239 316.124 328.965 319.914 326.216C323.885 323.652 328.175 321.62 332.675 320.172C333.552 319.768 334.673 319.579 335.375 318.916C336.122 317.654 334.538 318.194 333.762 318.378C327.645 320.125 321.469 321.117 315.427 323.419C312.02 324.812 309.15 326.334 305.843 327.431C302.487 328.752 299.004 329.515 295.685 331.037C291.489 333.038 288.083 336.284 284.338 338.435C283.382 338.964 282.388 339.421 281.363 339.801C282.199 337.042 283.069 334.335 284.061 331.585L286.644 330.748C291.624 329.39 296.51 327.302 301.29 324.982C305.021 323.181 308.435 320.762 312.238 319.215C320.376 315.725 329.833 314.485 338.296 310.662C340.446 309.702 342.632 308.869 344.747 307.857C345.538 307.399 346.898 306.897 346.819 305.966C346.589 305.478 345.765 305.959 345.282 306.058C343.818 306.479 342.319 306.924 340.853 307.195C333.28 308.563 325.668 309.352 318.109 312.073C309.947 314.86 301.806 318.05 294.11 322.415C291.24 324.012 288.163 325.523 285.889 327.928C285.635 328.211 285.367 328.481 285.085 328.736C286.044 326.159 287.14 323.565 288.323 320.95C288.678 320.143 289.05 319.362 289.404 318.555C291.592 317.947 293.823 318.068 296.043 317.137C303.633 314.168 310.92 310.231 317.767 305.645C328.633 298.497 340.161 291.961 349.416 282.873C350.152 282.112 351.164 281.466 351.656 280.566C352.022 279.109 349.966 280.875 349.382 281.194C347.408 282.489 346.122 283.471 343.992 284.758C341.483 286.074 338.92 287.237 336.34 288.45C329.582 291.614 322.718 294.697 316.331 298.707C309.756 302.958 304.083 307.508 297.295 311.221C295.32 312.366 293.343 313.436 291.315 314.428C292.752 311.376 294.225 308.376 295.836 305.359C296.182 305.427 296.817 305.036 297.214 304.958C300.228 303.944 303.026 302.168 305.897 300.721C310.506 298.517 315.256 296.671 319.741 294.135C326.455 290.017 332.703 285.874 338.889 280.826C342.814 277.684 346.79 274.469 350.087 270.767C350.862 270.284 353.2 267.381 351.476 267.864ZM280.89 342.279C280.941 342.282 280.976 342.258 281.028 342.261C281.08 342.264 282.132 342.121 281.77 342.176C284.051 342.149 286.431 341.678 288.775 341.154C289.224 341.078 289.655 340.976 290.086 340.874C286.891 342.326 283.877 344.146 281.104 346.296C280.469 346.762 279.972 347.136 279.457 347.484C279.888 345.755 280.372 344.028 280.89 342.279Z" fill="url(#paint1_linear_2298_2021)"/>
<path d="M98.2443 364.145C97.5842 361.177 98.7561 357.771 100.926 355.726L101.571 355.184C101.045 354.82 100.439 354.449 100.005 353.933C99.2032 353.066 98.8673 351.881 98.8479 350.723C98.8758 349.869 99.2003 349.051 99.7656 348.411C100.252 347.855 100.926 347.435 101.522 347.008C102.474 346.134 103.716 345.603 104.925 345.907C105.529 344.006 107.142 342.87 109.819 343.261C111.905 343.561 113.962 345.135 113.928 347.364C114.02 348.607 113.422 349.991 113.815 350.981C114.266 352.216 115.995 352.964 116.643 351.465C117.184 350.276 116.698 348.998 115.793 347.924C113.979 345.853 111.433 343.958 112.34 340.848C113.836 335.994 121.937 334.981 124.151 339.797C124.251 339.993 124.326 340.2 124.376 340.415C124.419 340.378 124.419 340.378 124.499 340.385C124.487 339.973 124.536 339.561 124.644 339.162C124.928 338.19 125.399 337.354 125.474 336.483C125.586 335.656 125.317 335.075 124.811 334.473C123.858 333.514 122.149 332.528 121.854 330.869C121.714 330.179 121.869 329.315 122.457 328.968C123.002 328.656 123.952 328.738 124.085 329.507C124.13 329.91 123.822 330.242 123.491 330.373C123.326 330.438 123.017 330.332 123.037 330.094C123.087 329.979 123.252 329.914 123.295 329.878L123.381 329.805C123.624 329.308 123.248 329.036 122.782 329.355C122.081 330.091 122.468 331.6 123.386 332.516C123.892 333.118 124.843 333.639 125.415 334.406C125.842 335.001 126.176 335.748 126.071 336.496C125.982 337.525 125.282 338.7 125.171 339.528C125.159 339.753 125.126 339.977 125.073 340.197C125.481 340.04 125.905 339.929 126.337 339.868C128.3 339.758 130.362 340.814 131.325 342.572C131.857 343.463 132.231 344.44 132.431 345.458C133.437 345.346 134.58 345.046 135.638 345.257C135.717 345.264 135.832 345.314 135.911 345.321C135.773 345.07 135.672 344.861 135.534 344.61C132.702 338.186 131.19 331.238 128.236 324.844C127.938 324.14 127.597 323.473 127.263 322.726C127.177 322.799 127.048 322.907 127.041 322.986C126.339 323.723 125.66 324.661 124.669 325.053C124.162 325.232 123.617 325.276 123.087 325.181C122.558 325.086 122.061 324.856 121.647 324.512C121.128 324.069 120.816 323.524 120.382 323.008C119.804 322.32 118.974 321.77 118.174 321.342C116.985 320.801 115.588 320.361 114.892 319.185C114.364 318.381 114.087 317.44 113.925 316.549C111.468 317.294 108.78 317.499 106.673 316.041C106.508 316.107 106.3 316.208 106.293 316.288C105.306 316.923 104.258 317.46 103.164 317.889C99.2737 319.545 94.9292 317.694 93.8971 313.499C93.8453 313.176 93.7574 312.81 93.7057 312.486C91.8358 312.444 91.0094 310.937 90.484 309.178C90.2496 308.201 90.2957 307.208 90.1044 306.195C90.0303 305.67 89.8837 305.06 89.744 304.37C88.4973 305.418 87.0755 307.567 85.2652 306.374C82.4655 304.178 82.2157 299.692 84.2895 296.921C83.8671 296.79 83.4367 296.686 83.0009 296.611C82.612 296.497 81.2032 296.654 80.4616 296.47C78.7705 296.205 78.971 294.348 79.6638 293.252C80.8447 291.163 82.6474 289.493 84.8212 288.476C84.9433 288.447 85.0293 288.375 85.1514 288.345C85.0498 288.137 84.9551 287.85 84.8896 287.685C84.7429 287.077 84.7983 286.438 85.0472 285.865C86.5013 282.881 90.7907 283.531 93.7992 284.23C93.6613 283.418 93.704 282.585 93.9243 281.791C94.1446 280.997 94.5371 280.262 95.0739 279.637C96.8278 277.795 99.719 276.172 102.155 277.499C103.167 276.869 104.439 276.899 105.563 277.276C106.441 277.554 107.267 277.976 108.007 278.524C108.158 278.617 108.266 278.745 108.418 278.838C107.807 277.151 107.274 275.47 106.62 273.819C106.455 273.798 106.305 273.714 106.202 273.584C105.585 272.415 104.851 272.152 103.784 271.581C101.867 270.697 100.341 270.366 98.1665 269.699C96.0278 269.076 93.9391 268.337 91.8573 267.519C91.0198 268.443 90.0877 269.08 89.2639 269.846C88.5624 270.582 88.315 271.597 87.9101 272.599C87.2689 274.018 86.3475 275.453 84.8975 276.085C83.8616 276.55 82.7117 276.701 81.5911 276.517C81.5121 276.51 81.4759 276.467 81.4329 276.503C81.4236 276.588 81.3889 276.668 81.3332 276.733C80.7058 277.995 79.841 279.236 78.5561 279.802C77.4296 280.382 75.5958 280.383 74.6618 280.581C73.1165 280.926 72.1145 281.916 70.5132 282.455C69.113 282.971 67.4444 282.906 66.1607 282.078C64.9855 281.378 64.3604 279.849 64.7932 278.531C64.9658 278.035 65.2216 277.572 65.5496 277.162C65.0943 276.822 64.6735 276.438 64.2932 276.017C63.1592 274.842 62.9073 273.146 63.9802 271.804C64.4238 271.284 65.2544 270.439 65.4538 269.978C66.2825 268.694 65.7433 267.092 66.0387 265.524C66.5538 263.256 68.301 261.494 70.3753 260.557C69.5059 259.087 70.2112 257.394 70.924 256.06C71.3227 255.138 71.2828 254.218 70.8471 253.263C70.3324 252.302 69.9193 251.548 70.5847 250.769C70.2818 250.583 70.022 250.361 69.683 250.133C68.63 249.404 67.9189 247.947 68.424 246.715C68.7299 245.944 69.3749 245.402 69.9406 244.853C70.5986 244.095 71.0722 243.194 71.3244 242.222C71.5717 241.207 71.7107 240.063 72.5119 239.096C74.5376 236.879 78.7983 236.012 80.8878 238.585C81.8569 239.825 81.8009 241.853 83.3201 242.264C83.4813 242.29 83.6466 242.277 83.8017 242.226C82.5866 240.606 81.9235 238.595 80.2578 237.574C79.0103 236.788 77.2879 235.961 76.2965 234.52C75.7749 233.638 75.5249 232.38 76.0458 231.429C76.5099 230.672 77.3786 230.308 78.1749 229.859L78.3038 229.751C77.8409 229.283 77.3762 228.818 76.9099 228.354L76.8668 228.39C76.4784 228.661 76.0008 228.773 75.5323 228.703C75.0638 228.633 74.6401 228.386 74.3482 228.013C73.9868 227.583 73.806 227.368 73.4309 227.097C73.3435 227.026 73.2338 226.988 73.1213 226.99C72.5673 226.942 72.1149 227.102 71.4392 227.084C69.411 227.028 68.956 224.915 69.769 223.351C70.0544 222.818 70.4843 222.456 70.9504 222.138C70.625 221.751 70.2568 221.4 69.9316 221.013C69.8456 221.086 69.6804 221.151 69.5945 221.223C68.5762 221.933 68.2517 223.379 67.9702 224.79C67.6954 226.122 66.9322 227.571 65.539 228.008C63.6504 228.642 61.5822 227.666 60.3963 226.168C59.6079 225.142 59.1499 223.987 58.004 223.409C57.6289 223.138 56.3832 222.791 55.7774 222.419C55.0851 222.032 54.5581 221.405 54.2956 220.657C54.1605 220.282 54.1001 219.884 54.1178 219.485L54.0318 219.558C53.479 220.186 53.1092 220.953 52.9627 221.777C52.8444 222.684 53.2438 223.596 53.6277 224.227C54.287 225.36 55.6673 226.915 54.6807 228.185C54.1442 228.856 53.2736 228.78 52.5115 228.834C52.4686 228.87 52.5115 228.834 52.5907 228.841C51.6772 228.802 50.9102 229.373 50.813 230.042C50.722 230.632 51.4773 230.658 52.0294 230.267L52.2013 230.123C52.3165 230.172 51.9639 230.102 51.9278 230.059C51.704 229.88 51.9619 229.663 52.1993 229.684C52.559 229.675 53.0562 229.917 52.8207 230.336C52.5422 230.79 51.9677 230.979 51.486 231.017C49.9618 231.125 49.8409 229.759 50.9088 228.934C51.7258 228.248 53.1004 228.486 53.668 228.376C54.7741 228.033 54.4586 226.611 53.8941 225.764C52.9387 224.366 51.8525 222.637 52.6001 220.908C52.8992 220.216 53.2481 219.409 53.9585 219.032C53.9417 219.007 53.9194 218.985 53.8932 218.969C53.8671 218.953 53.8376 218.943 53.8071 218.94C53.2805 218.575 53.0568 218.396 52.5165 218.19C51.3276 217.649 49.2533 218.585 47.3677 218.263C45.4323 218.055 43.6481 216.107 44.1783 214.119C44.5683 212.837 45.6862 211.898 46.8557 211.281C45.3914 210.238 43.4353 210.268 41.8831 208.858C40.7851 207.726 42.7528 207.099 43.5424 206.729C44.1666 206.424 45.4789 205.541 46.5145 205.551C46.6366 205.522 46.7519 205.572 46.874 205.542L46.8379 205.499C46.7568 205.054 46.7256 204.493 47.0403 204.082C48.3487 202.321 52.9543 202.999 55.0175 204.493L54.9814 204.45C54.3987 203.363 54.2248 202.104 54.4914 200.9C54.9155 199.751 55.7001 198.771 56.7278 198.105C57.7555 197.44 58.9711 197.125 60.1926 197.207L60.2718 197.214C59.8711 196.896 59.4879 196.557 59.1239 196.198C58.5025 195.643 57.8229 195.156 57.0969 194.747C54.6243 193.377 51.6806 192.843 49.4435 191.055C48.9239 190.611 48.2077 189.672 48.8596 189.051C49.4115 188.66 50.1531 188.844 50.7863 188.899C52.0817 189.13 53.6352 189.145 54.8271 188.73C56.2566 188.336 57.641 187.539 59.1808 187.712C59.3427 187.576 59.4785 187.412 59.5815 187.228C61.1405 185.33 63.7506 185.117 66.0729 184.999C67.6762 184.899 68.9835 184.534 70.239 183.845C72.9583 182.366 75.4929 179.795 78.7649 179.759C79.494 179.758 80.2123 179.936 80.8569 180.277C81.5015 180.617 82.0528 181.111 82.4627 181.714C83.4541 183.155 83.1464 185.321 81.3806 185.926C79.2545 186.539 78.2144 183.818 76.4576 183.387C76.2632 183.33 75.6732 183.239 75.3858 183.334C75.0059 183.469 74.6518 183.667 74.3385 183.921C73.9085 184.282 73.5508 184.73 73.0916 184.969C73.2 185.098 73.2655 185.263 73.0798 185.566C72.4573 186.309 71.3788 186.336 70.5824 186.785C69.5849 187.257 68.4104 188.391 67.5524 189.552C66.7873 190.562 66.1549 192.342 65.4484 193.596C64.8705 194.657 64.0698 195.581 63.1012 196.303C62.92 196.443 62.7225 196.56 62.5132 196.651C62.517 197.529 62.5638 198.37 62.5744 199.167C62.6174 199.131 62.6965 199.138 62.7395 199.102C63.106 198.976 63.4555 198.806 63.78 198.594C64.792 197.964 65.6718 197.004 66.85 196.747C67.5398 196.607 68.2882 196.712 68.851 197.119C69.3775 197.484 69.8405 198.122 69.8648 198.762C70.0064 199.89 69.3203 200.907 68.7204 201.852C68.435 202.386 68.2288 202.926 68.3167 203.292C68.4317 203.582 68.6544 203.815 68.9379 203.944C69.4059 204.065 69.9375 203.911 70.7063 203.778C70.8642 203.743 71.0264 203.73 71.188 203.74L71.2154 203.424C71.2801 201.756 72.5044 200.506 74.1731 200.57C77.6533 200.434 80.2015 205.995 75.7532 206.727C75.1063 206.83 74.3805 206.927 73.7473 206.872C73.8129 207.298 73.8556 207.728 73.8752 208.159C74.1153 208.283 74.3305 208.45 74.5101 208.652C75.0952 209.261 75.142 210.102 75.0735 210.893C74.9769 212.03 74.4424 213.084 73.5829 213.834C72.5941 214.665 71.436 214.684 70.721 215.579C70.4133 215.911 70.3156 216.58 70.3965 217.026C70.543 217.637 70.8047 218.298 70.8291 218.937C70.8599 219.35 70.8104 219.766 70.6833 220.16L71.7677 221.45L71.8967 221.342C72.7226 220.788 73.5193 220.191 74.2836 219.555C75.8016 218.132 76.7666 216.66 77.6067 214.78C77.806 214.319 78.0054 213.857 78.1619 213.433C76.5159 210.34 79.6327 209.334 79.461 206.25C79.4307 205.601 79.3533 204.954 79.2296 204.316C78.7647 203.706 78.4823 202.977 78.4151 202.213C78.3752 201.292 78.6088 200.435 78.3178 199.653C78.0697 198.834 77.5774 198.074 77.6528 197.204C77.6832 195.931 79.1707 195.78 80.1364 196.143C82.0014 196.703 83.5175 198.07 84.5384 199.633C85.2045 200.688 85.6626 201.843 85.7542 203.087C85.7474 203.166 85.7835 203.209 85.7406 203.245C86.1966 203.157 86.6387 203.008 87.0547 202.801C87.1338 202.808 87.8579 202.273 88.2171 202.264C88.7651 202.21 89.3151 202.342 89.7793 202.638C90.934 203.575 91.2787 205.12 91.8813 206.448C92.8903 208.608 93.8855 210.927 93.551 213.409C93.5305 213.647 93.4738 213.841 93.4533 214.078C94.0787 214.046 94.7054 214.113 95.3095 214.279C96.1595 214.592 97.0026 214.984 97.5809 215.671C97.8212 216.067 97.9557 216.517 97.9715 216.979C97.9873 217.442 97.884 217.9 97.6713 218.311C97.0509 219.493 96.0533 219.965 95.2588 220.853C94.2133 221.878 94.2571 223.676 93.3424 225.032C92.6996 226.013 91.905 226.901 90.8937 227.531C90.8077 227.603 90.6425 227.669 90.5566 227.741C90.6288 227.827 90.6581 227.949 90.7304 228.035C90.9268 228.53 91.1523 229.148 91.3468 229.205C92.0092 229.381 93.1133 228.6 94.2144 228.775C95.9417 229.084 97.279 230.675 97.3657 232.436C97.3508 233.99 96.3141 235.375 95.6642 236.435C95.4596 236.744 95.2966 237.078 95.1794 237.429C97.4905 237.908 99.6375 238.892 101.413 240.48C102.518 241.533 103.761 242.836 103.818 244.476C103.71 246.181 101.88 247.059 101.045 248.421C100.674 249.027 100.542 250.092 100.753 250.868C101.049 252.369 101.554 253.822 102.254 255.183C103.03 256.805 104.044 258.448 103.923 260.311C103.874 260.924 103.7 261.519 103.412 262.062C103.362 262.177 103.27 262.329 103.22 262.444C104.127 264.396 104.998 266.305 105.82 268.33C107.201 271.718 108.381 275.129 109.596 278.583C109.69 278.595 109.785 278.589 109.877 278.567C112.393 278.506 115.739 280.39 115.01 283.277C114.878 284.044 114.598 284.778 114.186 285.438C114.143 285.474 114.093 285.589 114.05 285.625C114.688 286.068 115.26 286.601 115.747 287.207C116.876 288.899 117.066 291.308 116.074 293.096C115.856 293.436 115.614 293.762 115.352 294.07L115.18 294.214C115.667 295.492 116.155 296.77 116.684 298.012C118.905 297.686 119.53 299.215 120.816 300.482C121.437 301.134 122.135 301.354 122.638 301.079C123.348 300.702 123.423 299.831 123.148 299.328C122.497 298.554 121.044 298.309 119.97 297.817C119.084 297.462 118.225 296.789 117.826 295.878C117.44 294.811 117.387 293.653 117.675 292.556C117.957 291.145 119.69 287.707 121.46 287.98C121.619 287.328 121.961 286.735 122.444 286.271C124.006 284.811 126.564 284.275 128.46 285.396C128.993 285.681 129.52 286.046 129.838 286.512C130.189 287.114 130.403 287.786 130.465 288.48C130.507 288.595 130.511 288.722 130.474 288.839C130.726 288.829 130.978 288.838 131.229 288.865C132.366 289.083 133.887 289.932 134.701 290.202C135.673 290.485 136.739 290.617 137.561 291.247C139.574 292.856 139.708 295.459 138.523 297.628C138.331 298.011 138.102 298.349 137.916 298.652C139.257 299.287 140.554 299.957 141.894 300.591C144.482 302.011 145.792 303.918 144.716 306.217C146.895 307.761 148.425 310.804 147.012 313.312C145.633 315.426 142.788 316.056 141.292 317.681C140.634 318.381 140.011 319.125 139.179 319.531C138.49 319.812 137.74 319.912 137.001 319.821C136.915 319.893 136.822 320.045 136.736 320.117C135.919 320.804 134.769 320.744 133.796 320.46C132.313 320.093 131.292 318.529 130.11 317.909C129.764 317.759 129.24 317.834 128.903 318.044C128.235 318.385 127.597 318.848 126.865 319.023C127.779 320.897 128.687 322.848 129.515 324.794C132.433 331.146 133.866 338.086 136.784 344.439C137.714 346.592 139.067 348.463 140.564 350.506C140.655 349.916 140.825 349.333 141.226 348.849C142.027 347.882 143.039 347.252 143.566 346.222C144.323 344.852 144.193 343.127 145.18 341.857C146.882 339.692 150.308 340.188 152.106 341.978C153.109 342.822 153.416 343.885 153.478 345.007C155.385 343.697 157.365 342.473 159.658 342.233C161.592 342.001 164.04 342.732 164.832 344.634C165.134 346.215 164.018 347.593 163.383 348.934C162.912 349.77 162.679 350.626 162.481 351.526L162.56 351.533C164.222 351.677 165.927 351.785 167.609 351.691C169.285 351.677 171.196 351.244 172.753 352.136C173.82 352.707 174.386 353.992 173.852 355.102C172.676 357.631 169.293 358.494 166.697 358.548C163.907 358.546 161.72 358.476 159.52 360.398C158.826 361.056 157.753 362.398 156.843 363.236C155.755 364.298 154.551 365.31 153.137 365.985C152.987 366.028 152.847 366.096 152.721 366.188C154.738 368.675 156.748 371.241 158.594 373.872C158.84 374.252 159.165 374.639 159.368 375.055C159.427 375.299 159.133 375.473 158.888 375.532C158.163 375.629 157.908 374.889 157.589 374.423C156.706 373.11 155.701 371.828 154.732 370.588C151.507 366.402 148.102 362.44 144.92 358.218C142.178 354.432 139.106 350.778 136.744 346.746C136.192 347.137 135.574 347.363 135.058 347.797C134.291 348.368 133.298 349.717 133.281 350.832C133.058 352.487 133.504 354.24 134.192 355.496C134.888 356.672 135.71 357.301 136.911 357.246C137.149 357.267 137.701 356.876 137.527 356.582C137.346 356.367 137.231 356.317 136.871 356.326C136.67 356.348 136.496 356.054 136.704 355.952C136.912 355.851 137.107 355.908 137.308 355.885C138.208 356.083 138.571 356.952 137.652 357.43C136.856 357.88 135.805 357.59 135.041 357.204C133.425 356.068 132.726 354.014 132.61 352.131C132.506 351.245 132.64 350.348 132.998 349.531C133.356 348.715 133.925 348.008 134.646 347.484C135.155 347.129 135.657 346.854 136.203 346.542C135.145 346.331 133.996 346.71 132.673 346.795C132.392 346.81 132.119 346.747 131.839 346.762L131.911 346.848C132.055 347.02 132.512 347.737 132.593 348.183C133.264 350.553 130.564 351.356 128.723 351.436C126.797 351.588 125.024 350.876 123.452 351.538C122.852 351.742 122.297 352.059 121.817 352.472C122.386 352.801 122.999 353.093 123.568 353.421C125.399 354.377 127.216 355.491 128.252 357.335C129.506 359.437 130.164 361.965 129.52 364.341C129.181 365.946 128.239 367.619 126.588 368.273C125.281 368.638 124.402 368.204 123.801 367.314C124.151 370.175 123.619 373.557 121.572 375.573C120.09 377.039 117.787 378.315 115.719 377.338C114.766 376.908 113.966 376.2 113.423 375.306C112.8 374.215 112.609 373.202 111.678 372.444C111 371.987 110.317 372.047 109.503 371.777C109.006 371.579 108.56 371.269 108.2 370.872C107.841 370.474 107.577 370 107.43 369.485C107.312 368.997 107.231 368.551 107.157 368.026C106.546 368.173 105.893 368.355 105.124 368.488C103.579 368.833 102.416 367.536 101.161 366.83C100.411 366.286 98.6388 365.574 98.2443 364.145ZM84.5009 265.925L84.5869 265.853C84.7881 265.831 84.924 265.643 85.0236 265.412C85.3559 264.836 85.5983 264.211 85.7425 263.561C85.9673 262.345 85.8463 260.979 85.1372 259.961C84.4282 258.943 83.3338 258.689 82.2435 259.312C81.4901 259.725 80.1036 260.083 80.3243 261.219C80.927 262.546 82.3755 263.31 83.1504 264.493C83.3836 264.765 83.5851 265.064 83.751 265.382C83.9609 265.719 84.0849 266.129 84.5012 265.925H84.5009ZM82.369 230.222C82.8331 229.464 84.0457 228.812 84.5117 228.494C85.0345 227.981 85.399 227.454 85.5691 226.871C83.8311 225.763 81.4708 225.4 79.8537 225.659C78.9627 225.821 78.4555 226.614 77.9552 227.328C79.2407 228.595 80.5196 229.942 81.7621 231.245C81.9096 230.874 82.1145 230.529 82.3693 230.222H82.369ZM77.4887 230.875C76.1335 231.795 76.5451 233.943 77.8442 235.052C78.9061 236.141 80.9226 236.794 82.1222 238.133C82.888 238.957 83.2806 239.948 83.9174 240.88C84.0552 241.131 84.3804 241.518 84.5544 241.812C84.7156 241.69 84.8495 241.536 84.9473 241.359C85.0451 241.182 85.1046 240.986 85.122 240.785C85.1395 240.583 85.1144 240.381 85.0485 240.189C84.9825 239.998 84.8772 239.823 84.7393 239.675C84.5601 239.447 84.3304 239.263 84.0682 239.139C84.2099 239.39 84.2945 239.67 84.3163 239.958C84.3586 240.073 84.3616 240.2 84.3249 240.317C84.1891 240.505 83.7143 240.464 83.7348 240.226C83.6744 239.543 83.2681 238.711 82.6038 238.095C81.8156 237.07 79.1303 236.32 79.4955 234.398C79.6431 233.613 80.0936 233.015 80.6525 232.545L80.9964 232.256C80.3028 231.518 79.6092 230.78 78.9519 230.085C78.4935 230.325 77.919 230.514 77.4889 230.875L77.4887 230.875ZM56.2797 205.56C56.7963 206.96 56.6319 208.859 57.8072 209.559C58.153 209.708 58.2166 209.435 58.1131 208.788C58.0595 208.026 57.617 207.15 57.0386 206.462C56.8287 206.125 56.5327 205.861 56.2797 205.56ZM85.8465 214.457C85.4939 214.387 84.8901 214.454 84.8489 214.929C84.7873 215.641 84.8048 216.36 85.1096 216.985C85.2473 217.236 85.3351 217.602 85.6585 217.55L85.7016 217.514C85.7308 217.636 85.9253 217.693 86.0473 217.664C86.3278 217.648 86.3913 217.375 86.448 217.18C86.661 216.561 86.8879 215.783 86.5831 215.159C86.5516 214.978 86.463 214.813 86.3304 214.687C86.1979 214.56 86.0282 214.48 85.8465 214.457ZM97.7452 290.233C98.0586 291.217 99.0999 292.543 100.05 292.625C101.142 292.44 100.508 290.552 99.792 289.613C99.3358 288.896 98.2827 288.167 97.5257 287.702C97.5294 288.58 97.5332 289.457 97.7452 290.233ZM114.219 294.728C113.336 295.25 112.244 295.434 111.251 295.388C111.316 296.949 111.301 298.502 110.58 299.915C109.638 301.587 107.616 302.847 106.148 300.927C105.931 300.669 105.757 300.375 105.576 300.16C104.764 300.329 103.93 300.296 103.312 300.522C101.892 301.276 102.202 303.216 103.708 303.785C104.788 304.198 105.962 304.459 106.8 305.368C107.306 305.97 107.683 306.681 108.232 307.246L108.412 307.461L108.419 307.382C108.372 306.541 107.713 305.407 107.802 304.379C108.073 302.17 110.189 300.758 111.982 299.837C112.981 299.365 113.652 298.507 114.722 298.121C114.966 298.062 115.254 297.968 115.498 297.909C115.04 296.753 114.611 295.719 114.219 294.728ZM148.405 360.792C148.702 361.131 148.977 361.487 149.229 361.86L149.388 361.874C149.82 361.951 150.215 361.986 150.46 361.927C150.984 361.853 151.823 361.367 151.865 360.892C151.96 359.785 150.57 359.265 149.535 359.256C149.297 359.235 148.515 359.526 148.263 359.664C148.098 359.729 147.969 359.838 147.761 359.939C147.954 360.239 148.169 360.525 148.405 360.793V360.792Z" fill="url(#paint2_linear_2298_2021)"/>
<path fill-rule="evenodd" clip-rule="evenodd" d="M197.065 120.074C197.284 119.735 197.742 119.331 198.259 118.907C199.792 117.659 201.982 116.334 202.191 116.193C205.515 114.001 209.008 111.989 212.362 109.822C213.815 108.877 215.248 107.904 216.632 106.873C217.08 106.532 220.065 104.498 220.712 103.045C220.874 102.705 220.919 102.32 220.842 101.951C220.788 101.754 220.692 101.57 220.562 101.412C220.431 101.254 220.269 101.125 220.085 101.034C219.389 100.655 218.423 100.544 217.368 100.625C215.388 100.775 213.039 101.572 211.835 101.896C207.837 102.987 203.9 104.29 200.041 105.8C196.159 107.298 192.357 108.948 188.615 110.642C177.966 115.468 167.476 120.673 157.324 126.328C147.033 132.066 137.091 138.269 127.705 145.019C123.416 148.097 118.688 151.385 114.618 155.088C111.751 157.7 109.213 160.521 107.372 163.614C107.306 163.726 107.262 163.85 107.243 163.98C107.225 164.109 107.232 164.241 107.265 164.367C107.297 164.494 107.354 164.613 107.432 164.717C107.511 164.822 107.609 164.91 107.721 164.976C107.834 165.043 107.958 165.086 108.087 165.105C108.217 165.123 108.348 165.116 108.475 165.084C108.602 165.051 108.72 164.994 108.825 164.916C108.929 164.838 109.017 164.739 109.084 164.627C110.816 161.684 113.214 159.003 115.921 156.509C119.913 152.833 124.56 149.566 128.77 146.504C138.076 139.744 147.929 133.523 158.131 127.767C168.213 122.083 178.643 116.853 189.232 111.996C192.935 110.301 196.707 108.646 200.558 107.144C204.368 105.639 208.255 104.339 212.203 103.247C213.208 102.975 215.03 102.348 216.741 102.09C217.777 101.933 218.762 101.885 219.419 102.244C219.608 102.345 219.459 102.508 219.339 102.695C219.063 103.102 218.735 103.471 218.364 103.793C217.349 104.73 216.085 105.579 215.816 105.784C214.462 106.8 213.049 107.759 211.626 108.69C208.272 110.867 204.788 112.884 201.464 115.084C201.185 115.267 197.782 117.348 196.388 118.815C196.104 119.095 195.878 119.428 195.721 119.794C195.513 120.374 195.662 120.827 196.189 121.125C197.205 121.684 198.996 121.69 201.056 121.343C204.798 120.711 209.486 119.017 211.228 118.567C219.389 116.471 227.55 114.363 235.811 112.577C241.275 111.394 246.788 110.354 252.362 109.548C271.979 106.726 293.078 106.03 313.909 107.733C334.819 109.444 355.461 113.574 374.033 120.371C374.155 120.416 374.286 120.436 374.416 120.43C374.547 120.424 374.675 120.392 374.793 120.337C374.912 120.281 375.018 120.203 375.106 120.106C375.194 120.01 375.262 119.897 375.307 119.774C375.351 119.651 375.371 119.521 375.365 119.39C375.359 119.26 375.327 119.132 375.272 119.013C375.216 118.895 375.138 118.789 375.042 118.701C374.945 118.613 374.832 118.545 374.709 118.5C355.959 111.748 335.128 107.7 314.038 106.074C293.088 104.461 271.869 105.235 252.153 108.153C246.56 108.979 241.016 110.044 235.512 111.246C227.251 113.054 219.07 115.175 210.899 117.288C209.178 117.734 204.54 119.418 200.837 120.042C199.284 120.303 197.921 120.41 197.065 120.074ZM415.684 366.262C421.616 365.319 427.687 363.352 433.31 360.53C438.933 357.703 444.109 354.02 448.189 349.559C452.05 345.425 454.847 340.223 458.45 335.797C459.953 333.945 461.605 332.239 463.545 330.809C465.486 329.375 467.646 328.421 469.915 327.77C472.204 327.11 474.613 326.769 477.011 326.569C477.273 326.542 477.514 326.414 477.681 326.21C477.848 326.007 477.928 325.746 477.903 325.484C477.878 325.222 477.75 324.98 477.548 324.812C477.345 324.644 477.084 324.563 476.822 324.587C474.304 324.859 471.786 325.286 469.388 326.037C466.949 326.8 464.63 327.894 462.55 329.498C460.54 331.046 458.838 332.883 457.275 334.859C453.762 339.316 451.026 344.51 447.223 348.663C443.203 352.948 438.136 356.493 432.623 359.139C427.181 361.738 421.369 363.476 415.395 364.291C415.263 364.307 415.136 364.35 415.021 364.416C414.905 364.482 414.805 364.57 414.724 364.676C414.644 364.781 414.585 364.902 414.552 365.03C414.519 365.159 414.512 365.292 414.531 365.424C414.55 365.555 414.595 365.681 414.664 365.795C414.733 365.908 414.823 366.007 414.931 366.085C415.038 366.163 415.16 366.218 415.289 366.249C415.419 366.279 415.552 366.283 415.683 366.26L415.684 366.262Z" fill="#E3DBF9"/>
<path fill-rule="evenodd" clip-rule="evenodd" d="M252.417 278.96C262.404 303.902 296.687 343.53 327.487 343.525C371.977 343.528 419.603 227.018 419.603 227.018C437.586 214.773 426.577 197.771 418.452 183.515L406.073 214.071C406.073 214.071 352.518 288.973 329.436 285.599C306.351 282.231 280.404 194.961 267.568 193.853C254.732 192.745 242.431 254.011 252.417 278.96Z" fill="#FB9C9A"/>
<mask id="mask0_2298_2021" style="mask-type:luminance" maskUnits="userSpaceOnUse" x="248" y="183" width="182" height="161">
<path d="M252.417 278.96C262.404 303.902 296.687 343.53 327.487 343.525C371.977 343.528 419.603 227.018 419.603 227.018C437.586 214.773 426.577 197.771 418.452 183.515L406.073 214.071C406.073 214.071 352.518 288.973 329.436 285.599C306.351 282.231 280.404 194.961 267.568 193.853C254.732 192.745 242.431 254.011 252.417 278.96Z" fill="white"/>
</mask>
<g mask="url(#mask0_2298_2021)">
<path fill-rule="evenodd" clip-rule="evenodd" d="M382.486 217.062C358.948 186.691 344.875 143.394 305.313 129.882C277.556 120.4 252.604 134.746 236.879 157.689C212.396 193.418 204.483 244.685 218.686 285.742C239.079 344.693 308.13 364.608 362.442 341.697C379.271 334.595 396.002 323.959 405.327 307.754C412.294 295.649 418.873 271.712 406.621 260.136C402.58 256.316 395.773 257.926 392.309 253.522C389.672 250.177 390.966 245.724 389.433 241.989C386.935 235.862 377.47 234.497 371.687 235.233L382.486 217.062Z" fill="url(#paint3_linear_2298_2021)"/>
</g>
<path fill-rule="evenodd" clip-rule="evenodd" d="M248.433 310.722C262.68 293.398 284.399 218.924 273.292 198.024C262.186 177.125 203.297 154.842 181.795 185.324C162.899 212.109 176.706 281.071 187.812 301.97C197.388 320.001 235.465 326.492 248.433 310.722Z" fill="url(#paint4_linear_2298_2021)"/>
<path fill-rule="evenodd" clip-rule="evenodd" d="M243.897 217.606C243.148 215.622 241.642 214.018 239.709 213.144C237.777 212.271 235.577 212.201 233.593 212.949L121.301 255.331C120.319 255.702 119.42 256.262 118.655 256.981C117.89 257.699 117.274 258.561 116.842 259.518C116.41 260.474 116.171 261.507 116.138 262.556C116.105 263.605 116.279 264.65 116.65 265.632L182.923 441.225C183.671 443.208 185.176 444.813 187.107 445.687C189.038 446.56 191.237 446.631 193.22 445.884L305.512 403.502C307.496 402.753 309.1 401.247 309.974 399.315C310.847 397.383 310.918 395.183 310.17 393.199L243.897 217.606Z" fill="white"/>
<path fill-rule="evenodd" clip-rule="evenodd" d="M159.147 272.691C158.951 272.171 158.557 271.751 158.051 271.522C157.545 271.294 156.969 271.275 156.449 271.471L137.129 278.763C136.61 278.959 136.19 279.354 135.961 279.859C135.732 280.365 135.714 280.941 135.91 281.461L135.91 281.462C136.107 281.982 136.501 282.402 137.007 282.63C137.513 282.859 138.089 282.878 138.608 282.682L157.929 275.39C158.448 275.193 158.868 274.799 159.096 274.293C159.325 273.787 159.344 273.212 159.148 272.692L159.147 272.691ZM156.111 264.647C155.915 264.127 155.521 263.707 155.015 263.479C154.509 263.25 153.933 263.231 153.414 263.427L134.093 270.719C133.574 270.915 133.154 271.31 132.925 271.816C132.696 272.322 132.678 272.898 132.874 273.417V273.419C133.07 273.938 133.465 274.358 133.97 274.586C134.476 274.815 135.052 274.834 135.571 274.638L154.893 267.346C155.412 267.15 155.832 266.756 156.061 266.25C156.289 265.744 156.308 265.168 156.112 264.649L156.111 264.647Z" fill="#E3E3FE"/>
<path fill-rule="evenodd" clip-rule="evenodd" d="M243.563 216.719C243.236 215.853 242.742 215.061 242.109 214.386C241.476 213.711 240.716 213.168 239.873 212.787C239.03 212.406 238.12 212.195 237.196 212.166C236.271 212.136 235.35 212.289 234.484 212.616L120.419 255.667C119.554 255.993 118.761 256.487 118.086 257.12C117.411 257.753 116.868 258.513 116.487 259.356C116.106 260.199 115.894 261.109 115.865 262.033C115.835 262.958 115.988 263.879 116.315 264.745V264.746C116.642 265.612 117.136 266.405 117.769 267.079C118.402 267.754 119.162 268.297 120.005 268.678C120.848 269.059 121.758 269.27 122.682 269.299C123.607 269.329 124.528 269.176 125.394 268.849L239.459 225.798C240.324 225.472 241.117 224.978 241.792 224.345C242.467 223.712 243.01 222.952 243.391 222.109C243.772 221.266 243.984 220.357 244.013 219.432C244.042 218.507 243.889 217.586 243.563 216.72V216.719Z" fill="white"/>
<path fill-rule="evenodd" clip-rule="evenodd" d="M213.496 318.309C213.423 318.317 213.35 318.3 213.288 318.262C213.225 318.224 213.177 318.166 213.151 318.097L199.291 281.375C198.683 279.766 197.461 278.464 195.893 277.756C194.326 277.047 192.541 276.99 190.931 277.597L190.926 277.599C190.129 277.899 189.399 278.354 188.778 278.937C188.157 279.52 187.657 280.219 187.306 280.996C186.955 281.772 186.761 282.61 186.735 283.461C186.708 284.312 186.85 285.16 187.151 285.957L201.124 322.978V322.978L201.119 322.98L200.51 323.21C200.342 323.275 200.156 323.275 199.988 323.21C199.82 323.145 199.682 323.021 199.6 322.86C197.874 319.505 189.11 302.449 184.654 293.781C184.312 293.115 183.842 292.523 183.271 292.038C182.7 291.554 182.039 291.186 181.326 290.957C180.613 290.728 179.862 290.642 179.116 290.703C178.37 290.764 177.643 290.972 176.977 291.314C176.972 291.316 176.972 291.316 176.972 291.316C176.305 291.658 175.713 292.129 175.228 292.7C174.743 293.271 174.376 293.932 174.147 294.645C173.917 295.359 173.831 296.11 173.892 296.857C173.953 297.604 174.161 298.331 174.503 298.997C177.451 304.73 182.33 314.224 186.122 321.603C189.765 328.695 193.002 335.989 195.817 343.449C195.817 343.449 190.534 338.067 186.398 333.852C185.109 332.541 183.353 331.795 181.515 331.778C179.677 331.762 177.908 332.476 176.596 333.763V333.764C175.948 334.401 175.432 335.16 175.078 335.997C174.725 336.834 174.541 337.732 174.536 338.641C174.532 339.55 174.708 340.45 175.053 341.29C175.399 342.131 175.907 342.894 176.549 343.537C181.183 348.18 188.348 355.349 194.62 361.633C198.482 365.499 203.378 368.169 208.719 369.322C214.061 370.474 219.622 370.061 224.735 368.131C239.551 362.539 247.029 345.997 241.438 331.183L239.035 324.817C239.035 324.817 236.631 299.996 235.522 288.534C235.375 287.028 234.637 285.642 233.468 284.681C232.3 283.719 230.798 283.261 229.292 283.407V283.406C227.785 283.552 226.399 284.29 225.437 285.458C224.474 286.626 224.015 288.129 224.16 289.635C224.993 298.194 226.466 313.415 226.466 313.415L226.353 313.458C226.236 313.471 226.118 313.442 226.021 313.376C225.924 313.31 225.853 313.211 225.822 313.098C224.964 309.808 220.163 291.423 217.57 281.492C217.129 279.805 216.035 278.361 214.53 277.479C213.025 276.597 211.231 276.349 209.543 276.788L209.538 276.79C208.702 277.008 207.918 277.389 207.229 277.91C206.54 278.432 205.961 279.084 205.524 279.83C205.088 280.575 204.803 281.399 204.685 282.255C204.567 283.111 204.619 283.982 204.838 284.817C207.775 296.066 213.574 318.282 213.574 318.282L213.496 318.309Z" fill="url(#paint5_linear_2298_2021)"/>
<path fill-rule="evenodd" clip-rule="evenodd" d="M286.332 363.755L291.318 376.967C292.062 378.94 291.993 381.127 291.124 383.048C290.256 384.969 288.66 386.467 286.688 387.212L272.741 392.476L271.442 389.032L285.389 383.768C285.914 383.571 286.395 383.272 286.805 382.888C287.214 382.504 287.544 382.044 287.776 381.533C288.007 381.021 288.136 380.47 288.154 379.909C288.173 379.348 288.08 378.789 287.882 378.264L282.896 365.052L286.332 363.755ZM184.38 402.234L189.366 415.446C189.564 415.971 189.863 416.452 190.246 416.861C190.629 417.27 191.09 417.6 191.601 417.831C192.112 418.062 192.663 418.19 193.223 418.207C193.784 418.225 194.342 418.132 194.867 417.934L208.814 412.67L210.113 416.114L196.166 421.377C194.193 422.121 192.006 422.052 190.085 421.183C188.164 420.315 186.666 418.719 185.921 416.746L180.935 403.534L184.38 402.234ZM160.402 284.401L161.702 287.844L147.755 293.108C147.23 293.306 146.75 293.605 146.341 293.989C145.932 294.372 145.602 294.833 145.372 295.344C145.141 295.855 145.013 296.406 144.995 296.967C144.978 297.527 145.071 298.085 145.27 298.61L150.256 311.822L146.812 313.122L141.825 299.91C141.081 297.937 141.151 295.75 142.019 293.829C142.887 291.907 144.483 290.41 146.455 289.665L160.402 284.401ZM223.03 260.764L236.977 255.5C238.95 254.756 241.137 254.826 243.058 255.694C244.979 256.563 246.477 258.158 247.222 260.131L252.208 273.343L248.772 274.64L243.785 261.428C243.587 260.903 243.287 260.422 242.902 260.013C242.518 259.605 242.057 259.275 241.546 259.045C241.034 258.814 240.482 258.686 239.921 258.669C239.36 258.652 238.801 258.745 238.277 258.943L224.33 264.207L223.03 260.764Z" fill="#E3E3FE"/>
<path d="M193.914 388.427C194.583 388.175 195.198 388.217 195.758 388.553C196.423 388.949 197.004 389.804 197.5 391.118C197.995 392.429 198.117 393.46 197.881 394.204C197.689 394.816 197.254 395.251 196.584 395.503C196.274 395.63 195.937 395.682 195.603 395.654C195.269 395.626 194.946 395.518 194.661 395.34C194.046 394.98 193.496 394.132 192.994 392.802C192.502 391.498 192.373 390.474 192.608 389.73C192.809 389.114 193.244 388.68 193.914 388.427ZM194.329 389.528C194.17 389.588 194.037 389.7 193.952 389.847C193.861 390.054 193.832 390.283 193.869 390.507C193.91 390.884 194.08 391.48 194.387 392.294C194.694 393.107 194.945 393.65 195.14 393.923C195.343 394.194 195.517 394.36 195.684 394.412C195.841 394.466 196.013 394.463 196.168 394.401C196.325 394.343 196.456 394.232 196.538 394.087C196.636 393.881 196.665 393.65 196.62 393.426C196.588 393.05 196.411 392.458 196.104 391.645C195.797 390.832 195.546 390.289 195.351 390.015C195.155 389.742 194.974 389.578 194.814 389.521C194.657 389.467 194.485 389.469 194.329 389.528ZM199.294 386.397C199.963 386.144 200.578 386.186 201.138 386.522C201.804 386.918 202.384 387.774 202.881 389.088C203.375 390.399 203.505 391.426 203.27 392.17C203.069 392.786 202.634 393.22 201.965 393.473C201.654 393.599 201.318 393.651 200.984 393.622C200.649 393.594 200.327 393.487 200.042 393.31C199.435 392.947 198.876 392.102 198.374 390.772C197.882 389.468 197.753 388.444 197.997 387.696C198.189 387.084 198.624 386.65 199.294 386.397ZM199.709 387.498C199.552 387.555 199.421 387.667 199.34 387.813C199.242 388.019 199.211 388.251 199.249 388.476C199.29 388.853 199.468 389.447 199.775 390.26C200.082 391.073 200.333 391.616 200.529 391.89C200.724 392.163 200.905 392.326 201.064 392.381C201.222 392.434 201.394 392.43 201.549 392.371C201.705 392.311 201.835 392.2 201.918 392.056C202.016 391.85 202.048 391.618 202.009 391.393C201.969 391.019 201.8 390.424 201.493 389.611C201.187 388.798 200.935 388.255 200.74 387.982C200.537 387.711 200.363 387.544 200.195 387.491C200.038 387.434 199.865 387.437 199.709 387.498H199.709ZM208.454 390.888L207.131 391.387L205.242 386.382C204.923 387.025 204.466 387.59 203.903 388.037L203.449 386.832C203.803 386.528 204.103 386.166 204.334 385.76C204.61 385.336 204.756 384.841 204.755 384.335L205.828 383.93L208.454 390.888ZM213.31 389.055L211.979 389.558L210.09 384.553C209.771 385.196 209.314 385.761 208.751 386.207L208.297 385.002C208.651 384.698 208.951 384.336 209.182 383.93C209.458 383.506 209.604 383.011 209.603 382.506L210.683 382.098L213.31 389.055ZM218.157 387.226L216.827 387.728L214.938 382.723C214.619 383.366 214.162 383.931 213.599 384.378L213.144 383.172C213.5 382.867 213.802 382.503 214.038 382.098C214.308 381.673 214.451 381.179 214.451 380.676L215.531 380.268L218.157 387.226ZM219.758 378.673C220.428 378.42 221.043 378.462 221.603 378.798C222.268 379.195 222.849 380.05 223.345 381.364C223.84 382.675 223.97 383.702 223.734 384.446C223.534 385.062 223.099 385.496 222.429 385.749C222.119 385.876 221.782 385.927 221.448 385.899C221.114 385.87 220.791 385.763 220.506 385.586C219.899 385.223 219.341 384.378 218.839 383.048C218.346 381.744 218.218 380.72 218.461 379.973C218.654 379.36 219.089 378.926 219.758 378.673ZM220.174 379.774C220.018 379.832 219.887 379.944 219.805 380.089C219.706 380.294 219.677 380.526 219.722 380.749C219.755 381.129 219.933 381.723 220.24 382.536C220.547 383.349 220.798 383.892 220.993 384.166C221.188 384.44 221.37 384.602 221.529 384.658C221.686 384.711 221.858 384.708 222.013 384.648C222.172 384.589 222.306 384.477 222.391 384.33C222.482 384.123 222.51 383.893 222.473 383.67C222.433 383.296 222.264 382.701 221.957 381.888C221.651 381.075 221.4 380.532 221.204 380.259C221.009 379.985 220.827 379.821 220.659 379.768C220.502 379.711 220.33 379.713 220.174 379.774ZM225.147 376.639C225.816 376.387 226.431 376.428 226.991 376.764C227.657 377.161 228.23 378.019 228.726 379.333C229.22 380.644 229.35 381.672 229.115 382.415C228.922 383.028 228.487 383.463 227.817 383.715C227.507 383.842 227.171 383.894 226.836 383.866C226.502 383.837 226.179 383.73 225.895 383.552C225.279 383.191 224.729 382.344 224.227 381.014C223.735 379.71 223.606 378.685 223.842 377.941C224.042 377.326 224.469 376.895 225.147 376.639ZM225.562 377.74C225.403 377.799 225.27 377.912 225.185 378.059C225.094 378.266 225.065 378.495 225.102 378.719C225.143 379.096 225.313 379.692 225.62 380.505C225.927 381.319 226.178 381.861 226.373 382.135C226.569 382.409 226.75 382.572 226.917 382.624C227.075 382.678 227.247 382.675 227.402 382.613C227.558 382.555 227.689 382.444 227.771 382.299C227.869 382.093 227.898 381.862 227.853 381.638C227.821 381.261 227.644 380.67 227.337 379.857C227.031 379.044 226.779 378.501 226.584 378.227C226.389 377.954 226.207 377.79 226.047 377.733C225.89 377.678 225.718 377.681 225.562 377.74ZM230.527 374.609C231.197 374.356 231.811 374.398 232.371 374.734C233.037 375.13 233.618 375.986 234.114 377.3C234.609 378.61 234.738 379.638 234.503 380.382C234.303 380.998 233.868 381.432 233.198 381.684C232.888 381.812 232.551 381.864 232.217 381.836C231.882 381.807 231.56 381.7 231.275 381.522C230.668 381.158 230.109 380.314 229.607 378.984C229.115 377.68 228.987 376.655 229.23 375.908C229.423 375.296 229.858 374.861 230.527 374.609ZM230.943 375.71C230.786 375.767 230.654 375.879 230.574 376.025C230.475 376.231 230.444 376.463 230.483 376.688C230.524 377.065 230.693 377.662 231 378.475C231.307 379.288 231.558 379.831 231.762 380.102C231.957 380.376 232.139 380.539 232.298 380.594C232.456 380.647 232.627 380.643 232.783 380.584C232.938 380.525 233.069 380.413 233.152 380.269C233.25 380.063 233.281 379.831 233.242 379.606C233.203 379.232 233.034 378.638 232.727 377.824C232.42 377.011 232.169 376.468 231.965 376.198C231.77 375.924 231.596 375.757 231.429 375.704C231.271 375.647 231.099 375.649 230.943 375.71H230.943ZM239.687 379.1L238.364 379.599L236.475 374.594C236.156 375.237 235.699 375.802 235.137 376.249L234.682 375.044C235.037 374.74 235.336 374.378 235.568 373.972C235.84 373.546 235.986 373.052 235.988 372.547L237.061 372.142L239.687 379.1ZM244.535 377.27L243.212 377.769L241.323 372.764C241.004 373.408 240.547 373.973 239.985 374.419L239.53 373.214C239.885 372.91 240.184 372.548 240.416 372.142C240.691 371.718 240.837 371.223 240.836 370.717L241.909 370.313L244.535 377.27ZM249.39 375.437L248.06 375.94L246.17 370.935C245.851 371.578 245.395 372.143 244.832 372.589L244.377 371.384C244.732 371.081 245.032 370.718 245.263 370.313C245.538 369.888 245.685 369.393 245.684 368.888L246.764 368.48L249.39 375.437ZM254.239 373.608L252.908 374.11L251.019 369.105C250.7 369.748 250.243 370.313 249.681 370.76L249.226 369.555C249.583 369.25 249.885 368.887 250.12 368.48C250.389 368.055 250.533 367.561 250.532 367.058L251.612 366.65L254.239 373.608ZM255.84 365.055C256.517 364.799 257.124 364.844 257.684 365.18C258.349 365.577 258.93 366.432 259.426 367.746C259.921 369.057 260.051 370.084 259.816 370.828C259.615 371.444 259.188 371.875 258.51 372.131C258.2 372.258 257.864 372.309 257.529 372.281C257.195 372.253 256.872 372.146 256.588 371.968C255.98 371.605 255.422 370.761 254.92 369.43C254.428 368.126 254.299 367.102 254.542 366.355C254.735 365.742 255.17 365.308 255.84 365.055ZM256.255 366.156C256.099 366.214 255.968 366.326 255.886 366.472C255.787 366.677 255.758 366.908 255.803 367.131C255.836 367.512 256.014 368.105 256.321 368.918C256.628 369.731 256.879 370.274 257.074 370.548C257.27 370.822 257.451 370.985 257.61 371.04C257.768 371.093 257.939 371.089 258.095 371.029C258.254 370.97 258.387 370.858 258.472 370.712C258.563 370.504 258.592 370.275 258.554 370.051C258.515 369.677 258.346 369.083 258.039 368.27C257.732 367.457 257.481 366.914 257.285 366.64C257.09 366.366 256.908 366.202 256.741 366.149C256.583 366.093 256.411 366.095 256.255 366.156ZM261.228 363.022C261.898 362.769 262.512 362.811 263.072 363.147C263.738 363.543 264.319 364.398 264.815 365.712C265.31 367.023 265.431 368.054 265.196 368.798C265.003 369.41 264.568 369.845 263.899 370.097C263.588 370.224 263.252 370.276 262.918 370.248C262.583 370.22 262.26 370.112 261.976 369.934C261.36 369.574 260.81 368.726 260.308 367.396C259.816 366.092 259.688 365.068 259.923 364.324C260.124 363.708 260.559 363.274 261.228 363.022ZM261.644 364.123C261.485 364.182 261.351 364.294 261.266 364.441C261.175 364.648 261.146 364.877 261.183 365.101C261.224 365.478 261.394 366.075 261.701 366.888C262.008 367.701 262.259 368.244 262.455 368.517C262.65 368.791 262.831 368.954 262.998 369.006C263.156 369.061 263.328 369.057 263.483 368.995C263.639 368.938 263.77 368.826 263.852 368.681C263.95 368.476 263.979 368.244 263.934 368.02C263.903 367.644 263.725 367.052 263.419 366.239C263.112 365.426 262.861 364.883 262.665 364.61C262.47 364.336 262.288 364.172 262.129 364.115C261.971 364.06 261.799 364.063 261.643 364.123H261.644ZM266.608 360.991C267.278 360.738 267.893 360.78 268.453 361.116C269.118 361.513 269.699 362.368 270.195 363.682C270.69 364.993 270.82 366.02 270.584 366.764C270.384 367.38 269.949 367.814 269.279 368.067C268.969 368.194 268.632 368.246 268.298 368.218C267.964 368.19 267.641 368.082 267.356 367.904C266.749 367.541 266.191 366.696 265.689 365.366C265.196 364.062 265.068 363.038 265.311 362.291C265.504 361.678 265.939 361.244 266.608 360.991ZM267.024 362.092C266.867 362.149 266.736 362.261 266.655 362.407C266.557 362.614 266.525 362.845 266.564 363.07C266.605 363.447 266.775 364.044 267.082 364.857C267.389 365.67 267.648 366.21 267.843 366.484C268.039 366.757 268.22 366.92 268.379 366.976C268.536 367.03 268.708 367.027 268.863 366.965C269.02 366.909 269.152 366.797 269.233 366.651C269.33 366.444 269.362 366.213 269.323 365.987C269.283 365.613 269.114 365.019 268.807 364.206C268.5 363.393 268.25 362.85 268.046 362.579C267.851 362.306 267.669 362.142 267.509 362.085C267.352 362.029 267.18 362.031 267.024 362.092Z" fill="#20238C"/>
<path d="M201.932 406.178L200.601 406.68L198.712 401.675C198.393 402.319 197.936 402.884 197.374 403.33L196.919 402.125C197.274 401.821 197.573 401.459 197.805 401.053C198.08 400.629 198.226 400.134 198.225 399.628L199.306 399.22L201.932 406.178ZM206.78 404.348L205.449 404.851L203.56 399.846C203.242 400.487 202.788 401.05 202.23 401.498L201.775 400.293C202.128 399.988 202.428 399.625 202.661 399.221C202.934 398.797 203.077 398.303 203.073 397.799L204.154 397.391L206.78 404.348ZM211.628 402.519L210.297 403.021L208.408 398.016C208.09 398.657 207.636 399.221 207.078 399.668L206.623 398.463C206.976 398.158 207.275 397.796 207.509 397.391C207.781 396.966 207.927 396.472 207.929 395.966L209.002 395.562L211.628 402.519ZM213.237 393.963C213.906 393.71 214.521 393.752 215.081 394.088C215.739 394.488 216.32 395.343 216.816 396.657C217.31 397.968 217.44 398.995 217.205 399.739C217.012 400.352 216.577 400.786 215.907 401.038C215.596 401.166 215.258 401.217 214.923 401.19C214.587 401.162 214.263 401.055 213.976 400.879C213.369 400.515 212.819 399.668 212.317 398.338C211.825 397.033 211.696 396.009 211.932 395.265C212.124 394.653 212.559 394.219 213.237 393.963ZM213.652 395.064C213.494 395.123 213.36 395.236 213.275 395.383C213.177 395.588 213.147 395.819 213.192 396.042C213.233 396.419 213.403 397.016 213.71 397.829C214.017 398.642 214.268 399.185 214.463 399.459C214.659 399.733 214.84 399.895 214.999 399.951C215.16 400.003 215.334 399.999 215.492 399.938C215.647 399.878 215.778 399.767 215.861 399.623C215.952 399.415 215.98 399.186 215.943 398.962C215.903 398.588 215.734 397.994 215.427 397.181C215.12 396.368 214.869 395.825 214.674 395.552C214.478 395.278 214.297 395.114 214.137 395.057C213.98 395.004 213.809 395.006 213.652 395.064ZM218.617 391.932C219.287 391.68 219.901 391.721 220.461 392.057C221.127 392.454 221.708 393.309 222.204 394.623C222.699 395.934 222.828 396.962 222.585 397.709C222.392 398.321 221.957 398.756 221.288 399.008C220.978 399.135 220.641 399.187 220.307 399.159C219.972 399.131 219.649 399.023 219.365 398.845C218.758 398.482 218.199 397.637 217.697 396.307C217.205 395.003 217.077 393.979 217.312 393.235C217.513 392.619 217.948 392.185 218.617 391.932ZM219.033 393.033C218.876 393.09 218.744 393.202 218.664 393.349C218.565 393.555 218.534 393.787 218.573 394.012C218.614 394.389 218.784 394.985 219.09 395.798C219.397 396.612 219.648 397.155 219.844 397.428C220.047 397.699 220.22 397.865 220.388 397.917C220.545 397.971 220.717 397.968 220.872 397.906C221.029 397.85 221.16 397.738 221.241 397.592C221.339 397.386 221.368 397.155 221.323 396.931C221.292 396.554 221.122 395.96 220.816 395.147C220.509 394.334 220.25 393.794 220.054 393.52C219.859 393.245 219.677 393.082 219.518 393.026C219.36 392.971 219.189 392.974 219.033 393.033L219.033 393.033ZM223.997 389.902C224.667 389.649 225.281 389.691 225.841 390.027C226.507 390.423 227.088 391.279 227.584 392.593C228.079 393.903 228.208 394.931 227.973 395.675C227.772 396.29 227.337 396.725 226.668 396.977C226.357 397.104 226.021 397.155 225.687 397.127C225.352 397.099 225.03 396.992 224.745 396.815C224.138 396.451 223.579 395.607 223.077 394.277C222.585 392.972 222.456 391.948 222.7 391.201C222.893 390.589 223.328 390.154 223.997 389.902ZM224.413 391.003C224.256 391.061 224.125 391.173 224.043 391.318C223.945 391.523 223.916 391.755 223.96 391.978C223.993 392.358 224.171 392.951 224.478 393.765C224.785 394.578 225.036 395.121 225.232 395.394C225.427 395.668 225.608 395.831 225.767 395.887C225.925 395.94 226.096 395.936 226.252 395.876C226.411 395.817 226.544 395.705 226.63 395.559C226.72 395.351 226.749 395.122 226.712 394.898C226.672 394.524 226.503 393.93 226.196 393.117C225.889 392.304 225.638 391.761 225.443 391.487C225.247 391.214 225.066 391.05 224.898 390.996C224.741 390.94 224.569 390.942 224.413 391.003L224.413 391.003ZM233.165 394.39L231.834 394.892L229.945 389.887C229.626 390.53 229.169 391.095 228.607 391.542L228.152 390.337C228.507 390.033 228.807 389.671 229.038 389.265C229.313 388.841 229.459 388.346 229.458 387.84L230.539 387.432L233.165 394.39ZM238.014 392.56L236.683 393.063L234.794 388.057C234.475 388.701 234.018 389.266 233.456 389.712L233.001 388.507C233.355 388.203 233.655 387.841 233.886 387.435C234.162 387.011 234.308 386.516 234.307 386.01L235.387 385.603L238.014 392.56ZM242.861 390.731L241.53 391.233L239.641 386.228C239.323 386.869 238.869 387.433 238.311 387.88L237.856 386.675C238.209 386.37 238.509 386.007 238.742 385.603C239.015 385.179 239.158 384.685 239.154 384.181L240.235 383.773L242.861 390.731ZM247.709 388.901L246.378 389.403L244.489 384.398C244.172 385.039 243.718 385.603 243.159 386.05L242.704 384.845C243.058 384.54 243.357 384.178 243.59 383.774C243.862 383.348 244.008 382.854 244.011 382.349L245.084 381.944L247.709 388.901ZM249.318 380.345C249.988 380.092 250.602 380.134 251.162 380.47C251.828 380.867 252.401 381.725 252.897 383.039C253.392 384.35 253.521 385.377 253.286 386.121C253.093 386.734 252.658 387.168 251.989 387.42C251.677 387.548 251.34 387.6 251.004 387.572C250.669 387.544 250.344 387.438 250.058 387.261C249.451 386.897 248.9 386.05 248.398 384.72C247.906 383.416 247.778 382.391 248.013 381.647C248.213 381.032 248.641 380.601 249.318 380.345ZM249.734 381.446C249.575 381.505 249.441 381.618 249.356 381.765C249.265 381.972 249.236 382.201 249.274 382.424C249.315 382.802 249.484 383.398 249.791 384.211C250.098 385.024 250.349 385.567 250.545 385.841C250.74 386.115 250.921 386.278 251.088 386.33C251.246 386.384 251.418 386.381 251.573 386.319C251.728 386.26 251.859 386.149 251.942 386.005C252.04 385.799 252.069 385.567 252.024 385.344C251.993 384.967 251.815 384.376 251.509 383.563C251.202 382.75 250.951 382.207 250.755 381.933C250.56 381.66 250.378 381.496 250.219 381.439C250.061 381.386 249.889 381.388 249.733 381.446H249.734ZM254.698 378.315C255.368 378.062 255.983 378.104 256.543 378.44C257.208 378.836 257.789 379.691 258.285 381.005C258.78 382.316 258.91 383.344 258.666 384.091C258.474 384.703 258.039 385.138 257.369 385.39C257.059 385.518 256.722 385.569 256.388 385.541C256.054 385.513 255.731 385.405 255.446 385.227C254.839 384.864 254.281 384.019 253.779 382.689C253.286 381.385 253.158 380.361 253.393 379.617C253.594 379.001 254.029 378.567 254.698 378.315ZM255.114 379.416C254.957 379.473 254.826 379.585 254.745 379.731C254.647 379.937 254.615 380.169 254.654 380.394C254.695 380.771 254.865 381.368 255.172 382.181C255.479 382.994 255.73 383.537 255.933 383.808C256.129 384.081 256.302 384.248 256.469 384.3C256.626 384.355 256.798 384.351 256.953 384.29C257.11 384.233 257.242 384.121 257.323 383.975C257.42 383.769 257.452 383.537 257.413 383.312C257.373 382.938 257.204 382.344 256.897 381.531C256.59 380.717 256.34 380.174 256.136 379.903C255.941 379.63 255.759 379.466 255.599 379.409C255.442 379.354 255.27 379.356 255.114 379.416ZM263.858 382.806L262.535 383.305L260.646 378.3C260.325 378.942 259.869 379.507 259.308 379.955L258.853 378.75C259.208 378.446 259.507 378.084 259.739 377.678C260.011 377.253 260.157 376.758 260.16 376.253L261.232 375.848L263.858 382.806ZM268.706 380.976L267.383 381.475L265.494 376.47C265.175 377.114 264.718 377.679 264.156 378.125L263.701 376.92C264.056 376.616 264.355 376.254 264.587 375.848C264.862 375.424 265.008 374.929 265.007 374.423L266.08 374.019L268.706 380.976ZM270.315 372.421C270.985 372.168 271.599 372.209 272.159 372.546C272.825 372.942 273.406 373.797 273.902 375.111C274.397 376.422 274.526 377.45 274.283 378.197C274.09 378.809 273.655 379.244 272.986 379.496C272.675 379.623 272.339 379.675 272.005 379.647C271.67 379.619 271.347 379.511 271.063 379.333C270.456 378.97 269.897 378.125 269.395 376.795C268.903 375.491 268.775 374.467 269.01 373.723C269.21 373.107 269.646 372.673 270.315 372.421ZM270.731 373.521C270.573 373.578 270.442 373.691 270.361 373.837C270.263 374.043 270.232 374.275 270.271 374.5C270.312 374.877 270.482 375.473 270.788 376.287C271.095 377.1 271.346 377.643 271.542 377.916C271.745 378.187 271.919 378.353 272.085 378.405C272.243 378.459 272.415 378.456 272.57 378.394C272.727 378.338 272.858 378.226 272.939 378.08C273.037 377.873 273.069 377.642 273.03 377.416C272.99 377.043 272.813 376.451 272.506 375.639C272.199 374.826 271.948 374.283 271.753 374.009C271.557 373.735 271.376 373.571 271.216 373.515C271.059 373.46 270.887 373.462 270.731 373.521Z" fill="#20238C"/>
<path fill-rule="evenodd" clip-rule="evenodd" d="M226.821 358.539C225.242 359.523 223.468 360.152 221.621 360.382C221.484 360.397 221.351 360.44 221.23 360.507C221.109 360.574 221.002 360.665 220.917 360.774C220.831 360.882 220.768 361.007 220.731 361.14C220.694 361.274 220.683 361.413 220.7 361.55C220.718 361.688 220.762 361.82 220.831 361.94C220.9 362.06 220.992 362.166 221.102 362.25C221.212 362.334 221.337 362.396 221.471 362.431C221.605 362.466 221.744 362.475 221.881 362.455C224.028 362.189 226.09 361.458 227.926 360.313C228.159 360.166 228.324 359.932 228.385 359.663C228.447 359.394 228.4 359.112 228.254 358.878C228.108 358.644 227.876 358.477 227.607 358.413C227.339 358.35 227.056 358.395 226.821 358.539ZM233.019 350.178C232.454 351.982 231.586 353.677 230.452 355.191C230.369 355.301 230.309 355.426 230.274 355.559C230.24 355.692 230.232 355.831 230.251 355.967C230.27 356.103 230.316 356.234 230.386 356.352C230.456 356.471 230.548 356.574 230.658 356.657C230.768 356.74 230.893 356.8 231.026 356.835C231.159 356.869 231.298 356.877 231.434 356.858C231.57 356.839 231.701 356.793 231.819 356.723C231.938 356.653 232.041 356.561 232.124 356.451C233.395 354.747 234.371 352.842 235.011 350.814C235.092 350.551 235.066 350.267 234.939 350.022C234.811 349.778 234.592 349.594 234.33 349.51C234.068 349.427 233.783 349.45 233.538 349.575C233.292 349.699 233.106 349.916 233.019 350.178ZM216.679 360.082C214.841 359.634 213.092 358.878 211.506 357.846C211.272 357.697 210.988 357.646 210.717 357.705C210.446 357.765 210.209 357.93 210.06 358.164C209.91 358.398 209.859 358.682 209.919 358.953C209.978 359.224 210.143 359.461 210.377 359.61C212.162 360.76 214.124 361.607 216.185 362.117C216.455 362.182 216.739 362.137 216.975 361.992C217.212 361.848 217.381 361.615 217.446 361.346C217.512 361.077 217.468 360.793 217.324 360.556C217.18 360.319 216.948 360.149 216.679 360.083V360.082ZM233.532 339.462C233.9 341.345 234.033 343.266 233.929 345.181C233.913 345.458 234.009 345.73 234.193 345.936C234.378 346.143 234.637 346.268 234.914 346.284C235.191 346.3 235.463 346.205 235.67 346.021C235.877 345.837 236.002 345.578 236.019 345.301C236.131 343.211 235.983 341.116 235.578 339.062C235.554 338.927 235.502 338.797 235.427 338.682C235.352 338.566 235.254 338.467 235.14 338.389C235.026 338.311 234.898 338.257 234.763 338.229C234.628 338.201 234.489 338.201 234.353 338.227C234.218 338.254 234.089 338.307 233.975 338.383C233.86 338.46 233.761 338.558 233.685 338.673C233.609 338.788 233.556 338.917 233.529 339.052C233.503 339.187 233.504 339.327 233.532 339.462ZM207.602 354.591C206.286 353.192 205.151 351.634 204.221 349.955C204.155 349.835 204.066 349.729 203.959 349.643C203.852 349.558 203.729 349.494 203.598 349.456C203.466 349.418 203.328 349.407 203.192 349.422C203.056 349.438 202.925 349.48 202.805 349.547C202.563 349.681 202.384 349.907 202.307 350.173C202.23 350.44 202.262 350.726 202.395 350.969C203.406 352.801 204.643 354.499 206.076 356.023C206.265 356.225 206.527 356.343 206.804 356.352C207.08 356.361 207.349 356.26 207.551 356.07C207.751 355.879 207.869 355.617 207.878 355.341C207.888 355.064 207.788 354.795 207.602 354.591ZM229.178 329.568C230.321 331.113 231.278 332.788 232.029 334.557C232.083 334.684 232.16 334.798 232.258 334.894C232.356 334.99 232.472 335.066 232.599 335.118C232.726 335.169 232.862 335.195 232.999 335.194C233.136 335.193 233.271 335.165 233.398 335.111C233.524 335.058 233.638 334.98 233.734 334.882C233.83 334.784 233.906 334.669 233.958 334.542C234.009 334.414 234.035 334.278 234.034 334.141C234.033 334.004 234.005 333.869 233.951 333.743C233.135 331.821 232.098 330.001 230.861 328.319C230.693 328.102 230.447 327.959 230.175 327.921C229.903 327.884 229.627 327.954 229.407 328.118C229.186 328.281 229.039 328.525 228.996 328.796C228.954 329.067 229.019 329.344 229.179 329.568H229.178ZM202.211 345.235C201.643 343.399 201.296 341.502 201.177 339.585C201.169 339.448 201.134 339.314 201.074 339.19C201.014 339.067 200.93 338.956 200.828 338.865C200.725 338.774 200.606 338.704 200.476 338.659C200.347 338.614 200.21 338.595 200.073 338.604C199.936 338.612 199.802 338.647 199.678 338.706C199.555 338.766 199.445 338.85 199.354 338.952C199.262 339.055 199.192 339.174 199.147 339.304C199.103 339.434 199.084 339.571 199.092 339.708C199.219 341.793 199.595 343.856 200.214 345.851C200.298 346.116 200.483 346.337 200.73 346.466C200.976 346.595 201.263 346.621 201.528 346.539C201.659 346.498 201.78 346.432 201.885 346.345C201.991 346.257 202.077 346.149 202.141 346.028C202.204 345.907 202.243 345.774 202.255 345.638C202.267 345.502 202.252 345.365 202.21 345.234L202.211 345.235ZM220.856 322.877C222.608 323.614 224.238 324.616 225.686 325.848C225.791 325.936 225.913 326.003 226.043 326.044C226.174 326.086 226.312 326.101 226.448 326.089C226.585 326.077 226.718 326.038 226.84 325.975C226.961 325.911 227.069 325.825 227.158 325.72C227.246 325.615 227.313 325.493 227.354 325.362C227.395 325.232 227.41 325.094 227.398 324.957C227.386 324.821 227.348 324.688 227.284 324.566C227.221 324.444 227.134 324.336 227.029 324.248C225.417 322.883 223.607 321.77 221.661 320.947C221.405 320.841 221.118 320.84 220.861 320.945C220.605 321.051 220.401 321.253 220.294 321.509C220.187 321.765 220.186 322.053 220.291 322.309C220.397 322.566 220.6 322.77 220.856 322.877ZM201.474 334.492C201.794 332.622 202.403 330.813 203.279 329.13C203.344 329.008 203.385 328.875 203.399 328.738C203.412 328.601 203.399 328.462 203.358 328.33C203.318 328.198 203.252 328.076 203.165 327.969C203.077 327.863 202.969 327.775 202.847 327.711C202.725 327.646 202.592 327.607 202.454 327.594C202.317 327.581 202.179 327.596 202.047 327.637C201.915 327.678 201.793 327.745 201.688 327.834C201.582 327.922 201.495 328.031 201.431 328.153C200.457 330.029 199.775 332.043 199.411 334.126C199.363 334.399 199.425 334.68 199.584 334.907C199.744 335.135 199.986 335.29 200.26 335.338C200.533 335.387 200.814 335.325 201.042 335.166C201.27 335.007 201.425 334.765 201.474 334.492H201.474ZM210.395 322.567L210.547 322.509C212.29 321.855 214.153 321.582 216.01 321.71C216.285 321.725 216.554 321.63 216.759 321.448C216.965 321.265 217.09 321.009 217.108 320.735C217.126 320.46 217.035 320.19 216.855 319.982C216.675 319.774 216.421 319.646 216.147 319.624C214.06 319.481 211.967 319.774 209.999 320.483L209.808 320.553C207.976 321.245 206.297 322.29 204.866 323.627C204.663 323.816 204.544 324.078 204.534 324.355C204.525 324.632 204.625 324.901 204.814 325.104C205.003 325.307 205.265 325.426 205.542 325.436C205.819 325.446 206.089 325.345 206.292 325.156C207.484 324.042 208.876 323.163 210.394 322.566L210.395 322.567ZM222.286 351.015C222.013 351.154 221.732 351.279 221.444 351.388C218.348 352.556 214.941 351.734 212.311 349.576C212.205 349.489 212.083 349.424 211.952 349.385C211.821 349.345 211.683 349.331 211.547 349.345C211.411 349.358 211.279 349.399 211.158 349.463C211.037 349.528 210.93 349.615 210.843 349.721C210.757 349.827 210.691 349.949 210.652 350.08C210.612 350.211 210.599 350.349 210.612 350.485C210.626 350.621 210.666 350.754 210.73 350.874C210.795 350.995 210.883 351.102 210.988 351.189C214.202 353.833 218.387 354.776 222.182 353.343C222.541 353.208 222.892 353.053 223.233 352.878C223.357 352.817 223.467 352.732 223.558 352.627C223.648 352.523 223.718 352.402 223.761 352.271C223.804 352.14 223.822 352.001 223.811 351.864C223.801 351.726 223.763 351.592 223.701 351.468C223.638 351.345 223.552 351.236 223.447 351.146C223.341 351.057 223.219 350.989 223.088 350.947C222.956 350.905 222.818 350.889 222.68 350.901C222.543 350.913 222.409 350.952 222.286 351.016V351.015ZM226.253 337.289C226.315 337.437 226.373 337.586 226.429 337.736C227.77 341.289 227.408 345.018 225.721 347.781C225.649 347.898 225.601 348.028 225.58 348.164C225.559 348.299 225.565 348.438 225.597 348.571C225.63 348.705 225.688 348.831 225.769 348.941C225.85 349.052 225.952 349.146 226.069 349.218C226.187 349.289 226.317 349.337 226.453 349.358C226.588 349.379 226.727 349.373 226.86 349.341C226.994 349.308 227.12 349.25 227.23 349.169C227.341 349.088 227.435 348.986 227.507 348.869C229.499 345.603 229.971 341.197 228.386 336.997C228.32 336.823 228.255 336.649 228.177 336.481C228.125 336.353 228.048 336.238 227.95 336.14C227.853 336.043 227.738 335.966 227.61 335.913C227.483 335.861 227.347 335.834 227.209 335.834C227.071 335.835 226.935 335.863 226.808 335.916C226.681 335.969 226.566 336.047 226.469 336.145C226.373 336.243 226.296 336.359 226.245 336.487C226.193 336.615 226.167 336.751 226.169 336.889C226.17 337.027 226.199 337.163 226.253 337.289ZM209.261 345.751C209.04 345.325 208.845 344.886 208.677 344.436C207.465 341.226 207.649 337.871 208.937 335.214C209.058 334.965 209.075 334.677 208.984 334.415C208.893 334.153 208.701 333.938 208.452 333.817C208.202 333.696 207.915 333.679 207.653 333.77C207.39 333.861 207.175 334.052 207.054 334.302C205.533 337.435 205.291 341.389 206.72 345.174C206.916 345.697 207.143 346.208 207.399 346.704C207.527 346.948 207.746 347.132 208.008 347.215C208.271 347.298 208.556 347.275 208.802 347.149C209.047 347.024 209.233 346.806 209.319 346.545C209.405 346.283 209.384 345.998 209.261 345.751ZM213.555 330.826L213.667 330.782C217.048 329.506 220.803 330.605 223.502 333.23C223.701 333.421 223.968 333.525 224.244 333.521C224.52 333.516 224.783 333.402 224.976 333.204C225.168 333.006 225.275 332.74 225.272 332.464C225.27 332.188 225.158 331.924 224.962 331.73C221.711 328.576 217.201 327.308 213.12 328.756L212.929 328.826C212.207 329.099 211.517 329.451 210.873 329.876C210.758 329.952 210.66 330.05 210.583 330.164C210.507 330.278 210.453 330.406 210.426 330.541C210.399 330.676 210.399 330.814 210.425 330.949C210.452 331.084 210.505 331.212 210.581 331.327C210.657 331.441 210.754 331.54 210.869 331.616C210.983 331.693 211.111 331.746 211.245 331.773C211.38 331.8 211.519 331.801 211.653 331.774C211.788 331.748 211.917 331.695 212.031 331.619C212.51 331.302 213.021 331.036 213.555 330.826L213.555 330.826ZM219.59 341.009C219.023 341.321 218.435 341.591 217.829 341.818C217.078 342.106 216.302 342.322 215.511 342.464C215.375 342.487 215.246 342.537 215.13 342.61C215.013 342.683 214.913 342.778 214.833 342.89C214.754 343.002 214.697 343.129 214.667 343.262C214.636 343.396 214.633 343.535 214.656 343.67C214.679 343.805 214.728 343.935 214.801 344.051C214.874 344.167 214.97 344.268 215.081 344.347C215.193 344.427 215.32 344.483 215.454 344.514C215.588 344.544 215.726 344.548 215.862 344.525C216.785 344.36 217.691 344.108 218.567 343.773C219.268 343.51 219.949 343.197 220.604 342.836C220.847 342.701 221.026 342.476 221.102 342.209C221.178 341.943 221.146 341.657 221.011 341.415C220.877 341.172 220.651 340.993 220.385 340.917C220.118 340.841 219.833 340.873 219.59 341.008L219.59 341.009ZM217.035 340.447L217.276 340.353C218.774 339.788 220.193 339.52 221.142 339.61C221.28 339.624 221.418 339.611 221.551 339.571C221.683 339.531 221.806 339.465 221.913 339.378C222.019 339.29 222.108 339.182 222.172 339.06C222.237 338.938 222.277 338.805 222.29 338.667C222.303 338.53 222.288 338.391 222.247 338.259C222.206 338.127 222.139 338.005 222.051 337.899C221.962 337.793 221.853 337.706 221.731 337.642C221.608 337.578 221.474 337.54 221.337 337.528C220.194 337.422 218.501 337.681 216.712 338.333L216.538 338.398C214.98 338.986 213.666 339.75 212.81 340.487C212.705 340.576 212.618 340.685 212.556 340.808C212.493 340.931 212.455 341.065 212.444 341.203C212.433 341.34 212.45 341.479 212.493 341.61C212.536 341.741 212.605 341.863 212.695 341.967C212.785 342.072 212.895 342.157 213.019 342.219C213.142 342.281 213.277 342.318 213.414 342.327C213.552 342.337 213.69 342.319 213.821 342.275C213.952 342.231 214.073 342.161 214.177 342.07C214.839 341.498 215.849 340.918 217.035 340.447Z" fill="#6562F9"/>
<path fill-rule="evenodd" clip-rule="evenodd" d="M148.712 194.055C128.185 206.731 82.7016 246.539 89.2561 276.63C98.7307 320.103 143.637 365.959 143.637 365.959C145.36 380.995 158.203 384.45 160.898 385.417C163.225 386.25 154.112 365.121 155.095 363.428C158.259 357.988 164.49 366.22 165.933 360.901C166.848 357.543 158.886 351.39 151.806 352.175C151.806 352.175 119.818 292.297 128.917 265.412C138.023 238.527 202.032 240.539 206.42 190.868C207.593 177.593 202.339 160.938 148.712 194.055Z" fill="#FB9C9A"/>
<mask id="mask1_2298_2021" style="mask-type:luminance" maskUnits="userSpaceOnUse" x="88" y="174" width="119" height="212">
<path d="M148.712 194.055C128.185 206.731 82.7016 246.539 89.2561 276.63C98.7307 320.103 143.637 365.959 143.637 365.959C145.36 380.995 158.203 384.45 160.898 385.417C163.225 386.25 154.112 365.121 155.095 363.428C158.259 357.988 164.49 366.22 165.933 360.901C166.848 357.543 158.886 351.39 151.806 352.175C151.806 352.175 119.818 292.297 128.917 265.412C138.023 238.527 202.032 240.539 206.42 190.868C207.593 177.593 202.339 160.938 148.712 194.055Z" fill="white"/>
</mask>
<g mask="url(#mask1_2298_2021)">
<path fill-rule="evenodd" clip-rule="evenodd" d="M171.826 319.704C196.183 289.986 235.251 266.613 239.602 225.035C242.656 195.862 223.107 174.738 197.235 164.525C156.946 148.625 105.205 152.343 68.3488 175.343C15.429 208.368 11.4128 280.121 45.8586 327.956C56.5337 342.779 70.6329 356.716 88.5093 362.193C101.863 366.285 126.665 367.361 135.217 352.836C138.04 348.046 134.953 341.768 138.474 337.41C141.147 334.093 145.776 334.361 149.075 332.034C154.49 328.233 153.71 318.702 151.704 313.229L171.826 319.704Z" fill="url(#paint6_linear_2298_2021)"/>
</g>
<path fill-rule="evenodd" clip-rule="evenodd" d="M505.443 157.883C505.443 157.883 480.039 150.404 462.102 131.062C441.955 149.179 415.721 157.883 415.721 157.883V198.739C415.721 206.718 417.754 214.566 421.63 221.541C425.505 228.516 431.094 234.388 437.87 238.603C438.604 239.065 439.345 239.521 440.074 239.977C446.073 243.709 452.99 245.706 460.057 245.745C467.123 245.784 474.061 243.864 480.102 240.199C487.838 235.505 494.233 228.898 498.672 221.013C503.111 213.129 505.443 204.234 505.443 195.186V157.883Z" fill="url(#paint7_linear_2298_2021)"/>
<path fill-rule="evenodd" clip-rule="evenodd" d="M493.561 166.721C493.561 166.721 474.885 161.196 461.699 146.905C446.888 160.29 427.603 166.721 427.603 166.721V196.963C427.602 202.843 429.097 208.628 431.947 213.772C434.797 218.915 438.908 223.25 443.894 226.368C444.425 226.697 444.956 227.028 445.482 227.361C449.896 230.12 454.99 231.597 460.195 231.626C465.4 231.655 470.511 230.235 474.955 227.525H474.96C480.64 224.059 485.335 219.192 488.592 213.389C491.85 207.586 493.561 201.044 493.561 194.389V166.721Z" fill="white"/>
<path fill-rule="evenodd" clip-rule="evenodd" d="M442.069 198.896L454.411 215.432C455.441 216.809 457.013 217.583 458.647 217.522C459.473 217.483 460.278 217.244 460.992 216.826C461.705 216.408 462.308 215.824 462.747 215.123L485.797 179.441C487.431 176.906 486.848 173.421 484.486 171.661C482.123 169.901 478.887 170.533 477.243 173.067L458.168 202.597L450.186 191.903C448.396 189.497 445.119 189.109 442.881 191.038C440.633 192.968 440.28 196.489 442.069 198.896Z" fill="url(#paint8_linear_2298_2021)"/>
<path fill-rule="evenodd" clip-rule="evenodd" d="M411.303 198.136C412.052 193.91 414.453 189.591 415.873 189.095C425.35 185.799 430.367 195.271 420.598 198.209C415.873 199.631 411.139 211.83 411.139 211.83C411.139 211.83 410.735 201.376 411.303 198.136Z" fill="#FB9C9A"/>
<path fill-rule="evenodd" clip-rule="evenodd" d="M236.147 121.244C223.585 121.244 214.426 132.778 216.213 148.433C217.482 159.528 231.501 171.457 242.991 172.582C252.462 173.509 256.17 163.899 256.17 148.142C256.17 132.386 248.701 121.244 236.147 121.244Z" fill="url(#paint9_linear_2298_2021)"/>
<path fill-rule="evenodd" clip-rule="evenodd" d="M240.946 162.005C241.184 160.91 242.11 159.939 242.866 159.163C243.533 158.482 244.23 157.82 245.056 157.337C245.547 157.029 246.08 156.795 246.639 156.642C249.893 155.86 251.446 158.619 253.974 159.958C254.949 160.475 255.994 160.568 257.079 160.607C260.164 165.311 254.69 170.46 250.679 172.138C248.678 172.977 243.453 179.617 237.084 171.983C235.641 170.258 227.818 170.78 230.266 162.008C230.903 159.713 229.978 156.789 229.808 154.426C229.56 150.962 229.838 146.932 226.454 144.808C225.92 144.476 225.353 144.2 224.762 143.985C224.345 143.831 223.867 143.5 223.469 143.688C220.533 145.053 225.36 150.425 218.124 152.633C218.592 155.03 216.293 156.713 214.183 157.032C210.879 157.531 207.335 156.097 205.146 153.587C203.125 151.268 200.677 147.658 200.259 144.664C199.752 140.997 199.931 133.042 203.335 128.333C205.992 124.657 209.913 121.801 214.591 122.087C214.541 121.159 215.158 120.232 215.636 119.489C216.76 117.743 218.181 116.208 219.836 114.953C222.493 112.963 225.778 111.481 229.112 111.23C233.58 110.894 238.358 113.368 240.299 117.484C241.145 116.577 242.428 116.285 243.603 116.053C246.479 115.485 249.186 115.844 251.744 117.322C257.288 120.53 259.199 126.783 256.86 132.575C256.024 132.306 255.048 132.3 254.182 132.174C252.092 131.876 259.268 136.318 244.698 138.881C240.906 139.548 235.282 136.65 232.545 140.215C230.754 142.541 231.998 145.317 232.366 147.873C232.694 150.16 232.525 152.498 232.953 154.77C233.561 158.003 236.039 161.963 239.512 162.688L240.946 162.005Z" fill="url(#paint10_linear_2298_2021)"/>
<defs>
<linearGradient id="paint0_linear_2298_2021" x1="405.315" y1="284.274" x2="176.772" y2="472.078" gradientUnits="userSpaceOnUse">
<stop stop-color="#8D6FDE"/>
<stop offset="0.54" stop-color="#CCBBFA"/>
<stop offset="1" stop-color="#7848FC"/>
</linearGradient>
<linearGradient id="paint1_linear_2298_2021" x1="323.735" y1="264.297" x2="250.477" y2="383.13" gradientUnits="userSpaceOnUse">
<stop stop-color="#E3DBF9"/>
<stop offset="0.54" stop-color="#CCBBFA"/>
<stop offset="1" stop-color="#7848FC"/>
</linearGradient>
<linearGradient id="paint2_linear_2298_2021" x1="33.3033" y1="226.075" x2="232.612" y2="389.76" gradientUnits="userSpaceOnUse">
<stop stop-color="#E3DBF9"/>
<stop offset="0.56" stop-color="#CDBDFA"/>
<stop offset="1" stop-color="#7848FC"/>
</linearGradient>
<linearGradient id="paint3_linear_2298_2021" x1="308.49" y1="211.179" x2="321.113" y2="364.842" gradientUnits="userSpaceOnUse">
<stop stop-color="#272BAA"/>
<stop offset="0.45" stop-color="#1D2190"/>
<stop offset="1" stop-color="#050751"/>
</linearGradient>
<linearGradient id="paint4_linear_2298_2021" x1="237.655" y1="151.812" x2="204.341" y2="322.88" gradientUnits="userSpaceOnUse">
<stop stop-color="#3E42D3"/>
<stop offset="1" stop-color="#050751"/>
</linearGradient>
<linearGradient id="paint5_linear_2298_2021" x1="213.36" y1="273.68" x2="201.875" y2="382.298" gradientUnits="userSpaceOnUse">
<stop stop-color="#E3E3FE"/>
<stop offset="0.47" stop-color="#BBBBFE"/>
<stop offset="1" stop-color="#4F4FFF"/>
</linearGradient>
<linearGradient id="paint6_linear_2298_2021" x1="194.676" y1="166.694" x2="71.5497" y2="297.55" gradientUnits="userSpaceOnUse">
<stop stop-color="#292DB3"/>
<stop offset="0.56" stop-color="#22259F"/>
<stop offset="1" stop-color="#050751"/>
</linearGradient>
<linearGradient id="paint7_linear_2298_2021" x1="487.148" y1="132.192" x2="403.134" y2="290.016" gradientUnits="userSpaceOnUse">
<stop offset="0.81" stop-color="#2680C3"/>
<stop offset="1" stop-color="#226698"/>
</linearGradient>
<linearGradient id="paint8_linear_2298_2021" x1="481.638" y1="157.052" x2="429.333" y2="243.072" gradientUnits="userSpaceOnUse">
<stop stop-color="#407BA6"/>
<stop offset="0.47" stop-color="#3B698C"/>
<stop offset="1" stop-color="#22A1FF"/>
</linearGradient>
<linearGradient id="paint9_linear_2298_2021" x1="251.697" y1="125.829" x2="217.652" y2="177.855" gradientUnits="userSpaceOnUse">
<stop stop-color="#FB9C9A"/>
<stop offset="0.64" stop-color="#FC8886"/>
<stop offset="0.84" stop-color="#FD5450"/>
<stop offset="1" stop-color="#FF1712"/>
</linearGradient>
<linearGradient id="paint10_linear_2298_2021" x1="241.556" y1="173.792" x2="220.46" y2="107.03" gradientUnits="userSpaceOnUse">
<stop/>
<stop offset="0.53" stop-color="#121212"/>
<stop offset="1" stop-color="#4D4D4D"/>
</linearGradient>
</defs>
</svg>
