<svg width="150" height="150" viewBox="0 0 150 150" fill="none" xmlns="http://www.w3.org/2000/svg">
<path d="M144.721 74.9969C147.037 72.2992 148.661 69.0771 149.45 65.61C150.24 62.143 150.171 58.5357 149.251 55.101C148.33 51.6664 146.586 48.5082 144.169 45.9004C141.751 43.2927 138.734 41.314 135.379 40.1362C136.037 36.6416 135.831 33.0393 134.781 29.6419C133.731 26.2446 131.868 23.1547 129.354 20.6404C126.839 18.1261 123.749 16.2634 120.351 15.2138C116.954 14.1642 113.352 13.9594 109.857 14.6172C108.68 11.2614 106.702 8.24355 104.094 5.8257C101.486 3.40786 98.3276 1.6631 94.8925 0.742904C91.4574 -0.177289 87.8495 -0.245099 84.3823 0.545362C80.915 1.33582 77.6931 2.96066 74.9963 5.27881C72.2986 2.96226 69.0765 1.33888 65.6094 0.549514C62.1424 -0.239855 58.535 -0.171377 55.1004 0.749004C51.6658 1.66939 48.5076 3.41387 45.8998 5.83113C43.292 8.2484 41.3134 11.2654 40.1356 14.6205C36.6412 13.9637 33.0393 14.1694 29.6423 15.2197C26.2454 16.27 23.156 18.1333 20.6422 20.6478C18.1283 23.1623 16.2659 26.2521 15.2164 29.6493C14.167 33.0465 13.9622 36.6485 14.6199 40.1427C11.2648 41.3205 8.24775 43.2992 5.83049 45.9069C3.41323 48.5147 1.66873 51.6729 0.748349 55.1075C-0.172032 58.5421 -0.24052 62.1495 0.548849 65.6165C1.33822 69.0836 2.96162 72.3057 5.27817 75.0034C2.96092 77.701 1.33701 80.9233 0.547421 84.3907C-0.242173 87.8582 -0.173626 91.4659 0.747159 94.9008C1.66794 98.3358 3.41311 101.494 5.83121 104.102C8.2493 106.709 11.2673 108.687 14.6231 109.864C13.9649 113.358 14.1694 116.961 15.219 120.358C16.2686 123.755 18.1315 126.845 20.646 129.359C23.1605 131.874 26.2506 133.736 29.6481 134.785C33.0456 135.834 36.6478 136.038 40.1421 135.38C41.3199 138.735 43.2985 141.752 45.9063 144.169C48.5141 146.586 51.6723 148.331 55.1069 149.251C58.5415 150.172 62.1488 150.24 65.6159 149.451C69.083 148.661 72.3051 147.038 75.0028 144.721C77.7003 147.039 80.9227 148.663 84.3901 149.452C87.8576 150.242 91.4653 150.173 94.9002 149.252C98.3351 148.332 101.493 146.587 104.101 144.168C106.709 141.75 108.687 138.732 109.863 135.377C113.358 136.035 116.96 135.83 120.358 134.78C123.755 133.731 126.845 131.868 129.359 129.354C131.874 126.839 133.737 123.749 134.786 120.352C135.836 116.954 136.04 113.352 135.382 109.858C138.738 108.68 141.755 106.701 144.172 104.094C146.59 101.486 148.334 98.3273 149.254 94.8924C150.174 91.4576 150.242 87.8501 149.452 84.383C148.662 80.9159 147.038 77.694 144.721 74.9969Z" fill="#18C07A"/>
<path d="M61.5369 103.626L40.6952 82.7977C39.9042 82.0055 39.46 80.9317 39.46 79.8122C39.46 78.6927 39.9042 77.619 40.6952 76.8267L43.2273 74.2914C44.0195 73.5004 45.0933 73.0562 46.2128 73.0562C47.3323 73.0562 48.4061 73.5004 49.1983 74.2914L64.3485 89.4318L100.028 51.5158C100.796 50.7012 101.856 50.2245 102.974 50.1904C104.093 50.1562 105.18 50.5675 105.996 51.3338L108.596 53.7878C109.412 54.5557 109.889 55.616 109.923 56.7356C109.957 57.8553 109.546 58.9427 108.778 59.7588L67.6086 103.532C67.221 103.945 66.7543 104.276 66.2361 104.505C65.718 104.734 65.1592 104.857 64.5927 104.866C64.0263 104.875 63.4638 104.769 62.9389 104.557C62.4139 104.344 61.9371 104.027 61.5369 103.626Z" fill="white"/>
</svg>
