<svg width="21" height="21" viewBox="0 0 21 21" fill="none" xmlns="http://www.w3.org/2000/svg">
<path fill-rule="evenodd" clip-rule="evenodd" d="M6.29141 20.1323C6.73074 20.7189 7.44304 20.7189 7.88237 20.1323L20.61 3.1367C21.0493 2.55005 21.0493 1.5989 20.61 1.01225C20.1707 0.425603 19.4584 0.425603 19.0191 1.01225L6.29141 18.0078C5.85208 18.5945 5.85208 19.5456 6.29141 20.1323Z" fill="#4A90E2"/>
<path fill-rule="evenodd" clip-rule="evenodd" d="M1.26895 11.4312C1.70828 10.8445 2.42058 10.8445 2.85991 11.4312L7.63277 17.8045C8.0721 18.3912 8.0721 19.3423 7.63277 19.929C7.19344 20.5156 6.48114 20.5156 6.04182 19.929L1.26895 13.5556C0.829621 12.969 0.829621 12.0178 1.26895 11.4312Z" fill="#4A90E2"/>
</svg>
