<svg width="24" height="24" viewBox="0 0 24 24" fill="none" xmlns="http://www.w3.org/2000/svg">
<path d="M16.3359 3.82775C16.8931 3.30492 17.3179 2.69763 17.586 2.04075C17.8541 1.38387 17.9602 0.690347 17.8982 0C16.1876 0.112417 14.5997 0.767416 13.4766 1.82388C12.9388 2.33022 12.5312 2.91926 12.2781 3.55614C12.0249 4.19301 11.9313 4.86477 12.0027 5.53163C12.8372 5.53729 13.662 5.38656 14.4134 5.09109C15.1648 4.79563 15.8226 4.36336 16.3359 3.82775ZM20.05 12.7552C20.0599 11.8357 20.3574 10.9335 20.9144 10.1336C21.4714 9.33368 22.2696 8.66253 23.2336 8.18346C22.6252 7.46979 21.821 6.88134 20.8846 6.46478C19.9483 6.04822 18.9056 5.815 17.8392 5.78362C15.54 5.59163 13.4176 6.87554 12.1943 6.87554C10.971 6.87554 9.24661 5.80761 7.33058 5.83161C6.07798 5.86521 4.85746 6.16253 3.78807 6.69458C2.71867 7.22663 1.8369 7.97525 1.22878 8.86741C-1.36523 12.5392 0.565538 17.9988 3.15954 20.9626C4.33863 22.4145 5.8125 24.0584 7.758 23.9984C9.7035 23.9384 10.3373 23.0145 12.5923 23.0145C14.8473 23.0145 15.54 23.9984 17.456 23.9624C19.3721 23.9264 20.728 22.4745 21.9661 21.0226C22.8431 19.9685 23.5282 18.8167 24 17.6028C22.8319 17.1973 21.8354 16.522 21.1334 15.6605C20.4314 14.799 20.0548 13.789 20.05 12.7552Z" fill="white"/>
</svg>
