<svg width="57" height="57" viewBox="0 0 57 57" fill="none" xmlns="http://www.w3.org/2000/svg">
<path d="M26.277 0.363748C27.5266 -0.0597411 28.892 -0.114951 30.1783 0.205996L30.723 0.363748L52.8897 7.89289C54.0136 8.27462 54.9946 8.9378 55.7184 9.80515C56.4422 10.6725 56.879 11.7083 56.9778 12.7918L57 13.2651V28.6475C56.9999 33.2952 55.6144 37.8568 52.9897 41.8506C50.3651 45.8443 46.5987 49.1222 42.0882 51.3382L41.2458 51.7368L30.6248 56.5469C30.04 56.8114 29.4013 56.9637 28.7485 56.9943C28.0957 57.0249 27.443 56.9331 26.8312 56.7247L26.3752 56.5469L15.7542 51.7368C11.1644 49.6582 7.27946 46.4957 4.50935 42.5832C1.73924 38.6707 0.186772 34.1533 0.0158337 29.508L0 28.6475V13.2651C1.84143e-05 12.1784 0.340818 11.1141 0.982723 10.196C1.62463 9.27793 2.54123 8.54388 3.62583 8.07932L4.11033 7.89289L26.277 0.363748ZM28.5 5.73597L6.33333 13.2651V28.6475C6.33341 32.2472 7.40194 35.7806 9.42703 38.8779C11.4521 41.9752 14.3593 44.5223 17.8442 46.2528L18.5883 46.6055L28.5 51.0944L38.4117 46.6055C41.967 44.9957 44.979 42.5496 47.1322 39.5235C49.2855 36.4973 50.5008 33.0024 50.6508 29.4047L50.6667 28.6475V13.2651L28.5 5.73597ZM39.3712 18.818C39.941 18.3036 40.7057 18.0049 41.5099 17.9827C42.3141 17.9605 43.0974 18.2163 43.7009 18.6983C44.3043 19.1802 44.6826 19.8522 44.7589 20.5776C44.8352 21.3031 44.6038 22.0276 44.1117 22.6041L43.8488 22.8737L27.2745 37.889C26.6708 38.4357 25.8664 38.7626 25.014 38.8076C24.1617 38.8525 23.3209 38.6124 22.6512 38.1328L22.3472 37.889L14.7345 30.9937C14.1605 30.4787 13.8256 29.7845 13.7982 29.0532C13.7708 28.3219 14.053 27.6087 14.5871 27.0597C15.1213 26.5107 15.8669 26.1673 16.6713 26.0999C17.4758 26.0325 18.2782 26.2461 18.9145 26.6971L19.2122 26.9351L24.8108 32.0062L39.3712 18.818Z" fill="#2BB44E"/>
</svg>
