<svg width="57" height="57" viewBox="0 0 57 57" fill="none" xmlns="http://www.w3.org/2000/svg">
<path fill-rule="evenodd" clip-rule="evenodd" d="M15.5484 0.728478L0.728477 15.5579V15.5263C0.494068 15.7643 0.309041 16.0463 0.184045 16.356C0.0590479 16.6658 -0.0034504 16.9972 0.000146912 17.3313V39.6689C0.000146912 40.3655 0.253479 40.9989 0.728477 41.4739L15.5167 56.2717C15.9917 56.7467 16.6567 57 17.3217 57H39.6783C40.3749 57 41.0083 56.7467 41.4833 56.2717L56.2715 41.4739C56.5059 41.2359 56.691 40.9539 56.816 40.6441C56.9409 40.3343 57.0034 40.0029 56.9999 39.6689V17.3313C56.9999 16.6346 56.7465 16.0013 56.2715 15.5263L41.4833 0.728478C41.2453 0.49407 40.9633 0.309042 40.6535 0.184045C40.3437 0.0590481 40.0123 -0.00345041 39.6783 0.000146913H17.3534C16.6567 0.000146913 16.0234 0.25348 15.5484 0.728478ZM21.2389 16.7613C20.6416 16.1844 19.8417 15.8653 19.0114 15.8725C18.1812 15.8797 17.3869 16.2127 16.7998 16.7998C16.2127 17.387 15.8796 18.1812 15.8724 19.0115C15.8652 19.8418 16.1844 20.6417 16.7612 21.2389L24.0224 28.5001L16.7612 35.7612C16.4588 36.0533 16.2175 36.4028 16.0516 36.7891C15.8856 37.1755 15.7983 37.591 15.7946 38.0114C15.791 38.4319 15.8711 38.8489 16.0303 39.2381C16.1895 39.6272 16.4247 39.9808 16.722 40.2781C17.0193 40.5755 17.3729 40.8106 17.762 40.9698C18.1512 41.129 18.5682 41.2092 18.9887 41.2055C19.4091 41.2019 19.8246 41.1145 20.211 40.9485C20.5973 40.7826 20.9468 40.5413 21.2389 40.2389L28.5 32.9777L35.7611 40.2389C36.3584 40.8157 37.1583 41.1349 37.9886 41.1277C38.8188 41.1205 39.6131 40.7874 40.2002 40.2003C40.7873 39.6132 41.1204 38.8189 41.1276 37.9887C41.1348 37.1584 40.8156 36.3585 40.2388 35.7612L32.9776 28.5001L40.2388 21.2389C40.8156 20.6417 41.1348 19.8418 41.1276 19.0115C41.1204 18.1812 40.7873 17.387 40.2002 16.7998C39.6131 16.2127 38.8188 15.8797 37.9886 15.8725C37.1583 15.8653 36.3584 16.1844 35.7611 16.7613L28.5 24.0224L21.2389 16.7613Z" fill="#CE0C0C"/>
</svg>
