<svg width="36" height="37" viewBox="0 0 36 37" fill="none" xmlns="http://www.w3.org/2000/svg">
<path d="M14.25 18.5C15.4926 18.5 16.5 17.4926 16.5 16.25C16.5 15.0074 15.4926 14 14.25 14C13.0074 14 12 15.0074 12 16.25C12 17.4926 13.0074 18.5 14.25 18.5Z" fill="#2E3682"/>
<path d="M13.5 24.5C14.3284 24.5 15 23.8284 15 23C15 22.1716 14.3284 21.5 13.5 21.5C12.6716 21.5 12 22.1716 12 23C12 23.8284 12.6716 24.5 13.5 24.5Z" fill="#2E3682"/>
<path d="M21.75 23C22.9926 23 24 21.9926 24 20.75C24 19.5074 22.9926 18.5 21.75 18.5C20.5074 18.5 19.5 19.5074 19.5 20.75C19.5 21.9926 20.5074 23 21.75 23Z" fill="#2E3682"/>
<path d="M22.5 15.5C23.3284 15.5 24 14.8284 24 14C24 13.1716 23.3284 12.5 22.5 12.5C21.6716 12.5 21 13.1716 21 14C21 14.8284 21.6716 15.5 22.5 15.5Z" fill="#2E3682"/>
<path d="M18 12.5C17.6022 12.5 17.2206 12.342 16.9393 12.0607C16.658 11.7794 16.5 11.3978 16.5 11V3.5C16.5 3.10218 16.658 2.72064 16.9393 2.43934C17.2206 2.15804 17.6022 2 18 2C18.3978 2 18.7794 2.15804 19.0607 2.43934C19.342 2.72064 19.5 3.10218 19.5 3.5V11C19.5 11.3978 19.342 11.7794 19.0607 12.0607C18.7794 12.342 18.3978 12.5 18 12.5ZM18 35C17.6022 35 17.2206 34.842 16.9393 34.5607C16.658 34.2794 16.5 33.8978 16.5 33.5V26C16.5 25.6022 16.658 25.2206 16.9393 24.9393C17.2206 24.658 17.6022 24.5 18 24.5C18.3978 24.5 18.7794 24.658 19.0607 24.9393C19.342 25.2206 19.5 25.6022 19.5 26V33.5C19.5 33.8978 19.342 34.2794 19.0607 34.5607C18.7794 34.842 18.3978 35 18 35ZM33 20H27C26.6022 20 26.2206 19.842 25.9393 19.5607C25.658 19.2794 25.5 18.8978 25.5 18.5C25.5 18.1022 25.658 17.7206 25.9393 17.4393C26.2206 17.158 26.6022 17 27 17H33C33.3978 17 33.7794 17.158 34.0607 17.4393C34.342 17.7206 34.5 18.1022 34.5 18.5C34.5 18.8978 34.342 19.2794 34.0607 19.5607C33.7794 19.842 33.3978 20 33 20ZM9 20H3C2.60218 20 2.22064 19.842 1.93934 19.5607C1.65804 19.2794 1.5 18.8978 1.5 18.5C1.5 18.1022 1.65804 17.7206 1.93934 17.4393C2.22064 17.158 2.60218 17 3 17H9C9.39782 17 9.77936 17.158 10.0607 17.4393C10.342 17.7206 10.5 18.1022 10.5 18.5C10.5 18.8978 10.342 19.2794 10.0607 19.5607C9.77936 19.842 9.39782 20 9 20Z" fill="#D8D8FF"/>
<path d="M27.0004 19.9999C26.6025 19.9999 26.221 19.8418 25.9397 19.5605C25.6584 19.2792 25.5004 18.8977 25.5004 18.4999C25.5004 18.1021 25.6584 17.7205 25.9397 17.4392C26.221 17.1579 26.6025 16.9999 27.0004 16.9999H31.4119C31.0674 13.9595 29.7017 11.1258 27.538 8.9622C25.3744 6.79855 22.5408 5.43286 19.5004 5.08838V10.9999C19.5004 11.3977 19.3423 11.7792 19.061 12.0605C18.7797 12.3418 18.3982 12.4999 18.0004 12.4999C17.6025 12.4999 17.221 12.3418 16.9397 12.0605C16.6584 11.7792 16.5004 11.3977 16.5004 10.9999V5.08838C13.46 5.43286 10.6263 6.79855 8.46269 8.9622C6.29904 11.1258 4.93335 13.9595 4.58887 16.9999H9.00037C9.39819 16.9999 9.77972 17.1579 10.061 17.4392C10.3423 17.7205 10.5004 18.1021 10.5004 18.4999C10.5004 18.8977 10.3423 19.2792 10.061 19.5605C9.77972 19.8418 9.39819 19.9999 9.00037 19.9999H4.58887C4.93335 23.0403 6.29904 25.8739 8.46269 28.0376C10.6263 30.2012 13.46 31.5669 16.5004 31.9114V25.9999C16.5004 25.6021 16.6584 25.2205 16.9397 24.9392C17.221 24.6579 17.6025 24.4999 18.0004 24.4999C18.3982 24.4999 18.7797 24.6579 19.061 24.9392C19.3423 25.2205 19.5004 25.6021 19.5004 25.9999V31.9114C22.5408 31.5669 25.3744 30.2012 27.538 28.0376C29.7017 25.8739 31.0674 23.0403 31.4119 19.9999H27.0004ZM13.5004 24.4999C13.2037 24.4999 12.9137 24.4119 12.667 24.2471C12.4203 24.0823 12.2281 23.848 12.1145 23.5739C12.001 23.2998 11.9713 22.9982 12.0292 22.7072C12.0871 22.4163 12.2299 22.149 12.4397 21.9392C12.6495 21.7294 12.9168 21.5866 13.2077 21.5287C13.4987 21.4708 13.8003 21.5005 14.0744 21.6141C14.3485 21.7276 14.5827 21.9198 14.7476 22.1665C14.9124 22.4132 15.0004 22.7032 15.0004 22.9999C15.0004 23.3977 14.8423 23.7792 14.561 24.0605C14.2797 24.3418 13.8982 24.4999 13.5004 24.4999ZM14.2504 18.4999C13.8054 18.4999 13.3703 18.3679 13.0003 18.1207C12.6303 17.8735 12.3419 17.522 12.1716 17.1109C12.0013 16.6998 11.9568 16.2474 12.0436 15.8109C12.1304 15.3745 12.3447 14.9736 12.6594 14.6589C12.974 14.3442 13.375 14.1299 13.8114 14.0431C14.2479 13.9563 14.7003 14.0009 15.1114 14.1712C15.5225 14.3414 15.8739 14.6298 16.1212 14.9998C16.3684 15.3699 16.5004 15.8049 16.5004 16.2499C16.5004 16.8466 16.2633 17.4189 15.8414 17.8409C15.4194 18.2628 14.8471 18.4999 14.2504 18.4999ZM21.7504 22.9999C21.3054 22.9999 20.8703 22.8679 20.5003 22.6207C20.1303 22.3735 19.8419 22.0221 19.6716 21.6109C19.5013 21.1998 19.4568 20.7474 19.5436 20.3109C19.6304 19.8745 19.8447 19.4736 20.1594 19.1589C20.474 18.8442 20.875 18.6299 21.3114 18.5431C21.7479 18.4563 22.2003 18.5009 22.6114 18.6712C23.0225 18.8414 23.3739 19.1298 23.6212 19.4998C23.8684 19.8699 24.0004 20.3049 24.0004 20.7499C24.0004 21.3466 23.7633 21.9189 23.3414 22.3409C22.9194 22.7628 22.3471 22.9999 21.7504 22.9999ZM22.5004 15.4999C22.2037 15.4999 21.9137 15.4119 21.667 15.2471C21.4203 15.0823 21.2281 14.848 21.1145 14.5739C21.001 14.2998 20.9713 13.9982 21.0292 13.7072C21.0871 13.4163 21.2299 13.149 21.4397 12.9392C21.6495 12.7294 21.9168 12.5866 22.2077 12.5287C22.4987 12.4708 22.8003 12.5005 23.0744 12.6141C23.3485 12.7276 23.5827 12.9198 23.7476 13.1665C23.9124 13.4132 24.0004 13.7032 24.0004 13.9999C24.0004 14.3977 23.8423 14.7792 23.561 15.0605C23.2797 15.3418 22.8982 15.4999 22.5004 15.4999Z" fill="#B2B1FF"/>
<path d="M7.46843 10.0897C8.09503 9.30661 8.80636 8.59528 9.58943 7.96868L8.45393 6.83318C8.17103 6.55994 7.79213 6.40875 7.39883 6.41217C7.00554 6.41558 6.62932 6.57334 6.3512 6.85145C6.07309 7.12956 5.91534 7.50578 5.91192 7.89908C5.9085 8.29237 6.0597 8.67127 6.33293 8.95418L7.46843 10.0897ZM7.46843 26.9107L6.33293 28.0462C6.18967 28.1845 6.07539 28.3501 5.99678 28.5331C5.91817 28.7161 5.87679 28.9129 5.87506 29.1121C5.87333 29.3112 5.91128 29.5088 5.9867 29.6931C6.06212 29.8775 6.1735 30.0449 6.31434 30.1858C6.45518 30.3266 6.62266 30.438 6.807 30.5134C6.99135 30.5888 7.18887 30.6268 7.38803 30.6251C7.5872 30.6233 7.78403 30.5819 7.96704 30.5033C8.15005 30.4247 8.31556 30.3104 8.45393 30.1672L9.58943 29.0317C8.80636 28.4051 8.09503 27.6938 7.46843 26.9107ZM28.5314 26.9107C27.9048 27.6938 27.1935 28.4051 26.4104 29.0317L27.5459 30.1672C27.8288 30.4404 28.2077 30.5916 28.601 30.5882C28.9943 30.5848 29.3705 30.427 29.6487 30.1489C29.9268 29.8708 30.0845 29.4946 30.0879 29.1013C30.0914 28.708 29.9402 28.3291 29.6669 28.0462L28.5314 26.9107ZM28.5314 10.0897L29.6669 8.95418C29.9402 8.67127 30.0914 8.29237 30.0879 7.89908C30.0845 7.50578 29.9268 7.12956 29.6487 6.85145C29.3705 6.57334 28.9943 6.41558 28.601 6.41217C28.2077 6.40875 27.8288 6.55994 27.5459 6.83318L26.4104 7.96868C27.1935 8.59528 27.9048 9.30661 28.5314 10.0897Z" fill="#2E3682"/>
</svg>
