<svg width="51" height="51" viewBox="0 0 51 51" fill="none" xmlns="http://www.w3.org/2000/svg">
<path d="M47.8125 36.6562H31.875C30.9937 36.6562 30.2812 37.3703 30.2812 38.25C30.2812 39.1297 30.9937 39.8438 31.875 39.8438H46.2188C46.2188 41.6017 44.7892 43.0312 43.0312 43.0312H7.96875C6.21084 43.0312 4.78125 41.6017 4.78125 39.8438H19.125C20.0063 39.8438 20.7188 39.1297 20.7188 38.25C20.7188 37.3703 20.0063 36.6562 19.125 36.6562H3.1875C2.30616 36.6562 1.59375 37.3703 1.59375 38.25V39.8438C1.59375 43.3596 4.45294 46.2188 7.96875 46.2188H43.0312C46.5471 46.2188 49.4062 43.3596 49.4062 39.8438V38.25C49.4062 37.3703 48.6938 36.6562 47.8125 36.6562ZM36.6562 12.75H43.0312C43.911 12.75 44.625 13.4656 44.625 14.3438V33.4688C44.625 34.3485 45.3374 35.0625 46.2188 35.0625C47.1001 35.0625 47.8125 34.3485 47.8125 33.4688V14.3438C47.8125 11.7077 45.6673 9.5625 43.0312 9.5625H36.6562C35.7749 9.5625 35.0625 10.2765 35.0625 11.1562C35.0625 12.036 35.7749 12.75 36.6562 12.75ZM4.78125 35.0625C5.66259 35.0625 6.375 34.3485 6.375 33.4688V14.3438C6.375 13.4656 7.089 12.75 7.96875 12.75H14.3438C15.2251 12.75 15.9375 12.036 15.9375 11.1562C15.9375 10.2765 15.2251 9.5625 14.3438 9.5625H7.96875C5.33269 9.5625 3.1875 11.7077 3.1875 14.3438V33.4688C3.1875 34.3485 3.89991 35.0625 4.78125 35.0625ZM25.5 19.125C27.1224 19.125 28.6285 18.6325 29.8876 17.7974L32.342 20.2518C32.6527 20.5626 33.0607 20.7188 33.4688 20.7188C33.8768 20.7188 34.2848 20.5626 34.5955 20.2518C35.2187 19.6286 35.2187 18.6214 34.5955 17.9982L32.1412 15.5438C32.9763 14.2832 33.4688 12.7787 33.4688 11.1562C33.4688 6.76228 29.894 3.1875 25.5 3.1875C21.106 3.1875 17.5312 6.76228 17.5312 11.1562C17.5312 15.5502 21.106 19.125 25.5 19.125ZM25.5 6.375C28.1361 6.375 30.2812 8.52019 30.2812 11.1562C30.2812 13.7923 28.1361 15.9375 25.5 15.9375C22.8639 15.9375 20.7188 13.7923 20.7188 11.1562C20.7188 8.52019 22.8639 6.375 25.5 6.375ZM8.43094 30.7434C8.14247 31.0463 7.96875 31.4606 7.96875 31.875C7.96875 32.2894 8.14247 32.7037 8.43094 33.0066C8.73216 33.2934 9.13059 33.4688 9.5625 33.4688C9.97688 33.4688 10.3912 33.2934 10.6941 33.0066C10.9809 32.7037 11.1562 32.2894 11.1562 31.875C11.1562 31.4606 10.9809 31.0463 10.6941 30.7434C10.0884 30.1538 9.02063 30.1538 8.43094 30.7434ZM17.5312 25.5C17.5312 26.3797 18.2437 27.0938 19.125 27.0938C20.0063 27.0938 20.7188 26.3797 20.7188 25.5V23.9062C20.7188 23.0265 20.0063 22.3125 19.125 22.3125H14.3438C13.4624 22.3125 12.75 23.0265 12.75 23.9062V31.875C12.75 32.7547 13.4624 33.4688 14.3438 33.4688H19.125C20.0063 33.4688 20.7188 32.7547 20.7188 31.875V30.2812C20.7188 29.4015 20.0063 28.6875 19.125 28.6875C18.2437 28.6875 17.5312 29.4015 17.5312 30.2812H15.9375V25.5H17.5312ZM28.6875 22.3125H23.9062C23.0249 22.3125 22.3125 23.0265 22.3125 23.9062V31.875C22.3125 32.7547 23.0249 33.4688 23.9062 33.4688H28.6875C29.5688 33.4688 30.2812 32.7547 30.2812 31.875V23.9062C30.2812 23.0265 29.5688 22.3125 28.6875 22.3125ZM27.0938 30.2812H25.5V25.5H27.0938V30.2812Z" fill="#2E3682"/>
<path d="M39.8438 33.4689C40.7251 33.4689 41.4375 32.7549 41.4375 31.8752V23.9064C41.4375 23.2625 41.0502 22.6808 40.4542 22.4338C39.8597 22.1868 39.1728 22.3222 38.717 22.7796L36.6562 24.8404L34.5955 22.7796C34.1397 22.3238 33.456 22.1884 32.8583 22.4338C32.2623 22.6808 31.875 23.2625 31.875 23.9064V31.8752C31.875 32.7549 32.5874 33.4689 33.4688 33.4689C34.3501 33.4689 35.0625 32.7549 35.0625 31.8752V27.7537L35.5295 28.2207C36.1526 28.8439 37.1599 28.8439 37.783 28.2207L38.25 27.7537V31.8752C38.25 32.7549 38.9624 33.4689 39.8438 33.4689Z" fill="#2E3682"/>
</svg>
