<svg width="50" height="50" viewBox="0 0 50 50" fill="none" xmlns="http://www.w3.org/2000/svg">
<path d="M43.2422 36.6069H6.75819C6.49344 36.6069 6.23129 36.5548 5.9867 36.4535C5.74211 36.3522 5.51986 36.2037 5.33266 36.0165C4.95459 35.6384 4.74219 35.1256 4.74219 34.5909V10.5609C4.74219 9.44695 5.64419 8.54395 6.75819 8.54395H43.2422C44.3562 8.54395 45.2582 9.44695 45.2582 10.5599V34.5909C45.2582 35.1256 45.0458 35.6384 44.6677 36.0165C44.2896 36.3945 43.7769 36.6069 43.2422 36.6069Z" fill="#656766"/>
<path d="M6.88574 10.6885H43.1137V34.4625H6.88574V10.6885Z" fill="white"/>
<path d="M1.00271 38.7783C0.93871 40.1543 2.01471 41.4563 3.55571 41.4563H46.4437C47.9837 41.4563 49.0607 40.1543 48.9967 38.7783H1.00271Z" fill="#656766"/>
<path d="M30.1056 38.7783H19.8936L21.4716 40.1173H28.5276L30.1056 38.7783Z" fill="#4E4C4D"/>
<path d="M22.8163 21.0681C24.9078 21.0681 26.6033 19.3726 26.6033 17.2811C26.6033 15.1896 24.9078 13.4941 22.8163 13.4941C20.7248 13.4941 19.0293 15.1896 19.0293 17.2811C19.0293 19.3726 20.7248 21.0681 22.8163 21.0681Z" fill="#2E3682"/>
<path d="M29.0102 25.9573C28.2594 25.0405 27.3142 24.302 26.243 23.7953C25.1717 23.2885 24.0013 23.0262 22.8162 23.0273C21.631 23.0261 20.4603 23.2883 19.3889 23.795C18.3175 24.3018 17.3721 25.0404 16.6212 25.9573C15.6142 27.1823 16.5182 29.0353 18.1032 29.0353H27.5292C29.1142 29.0353 30.0172 27.1823 29.0102 25.9573Z" fill="#2E3682"/>
<path d="M32.2515 32.3475H26.6155C26.3689 32.3475 26.1323 32.2495 25.9579 32.0751C25.7835 31.9007 25.6855 31.6641 25.6855 31.4175V27.5325C25.6855 27.2858 25.7835 27.0493 25.9579 26.8749C26.1323 26.7005 26.3689 26.6025 26.6155 26.6025H32.2515C32.4982 26.6025 32.7347 26.7005 32.9092 26.8749C33.0836 27.0493 33.1815 27.2858 33.1815 27.5325V31.4175C33.1815 31.6641 33.0836 31.9007 32.9092 32.0751C32.7347 32.2495 32.4982 32.3475 32.2515 32.3475ZM27.5475 26.6025V25.0505C27.5475 24.0205 28.3985 23.1695 29.4375 23.1695C30.4755 23.1695 31.3185 24.0205 31.3185 25.0505V26.6025H32.1695V25.0505C32.1695 24.3246 31.8812 23.6284 31.3679 23.1151C30.8546 22.6018 30.1584 22.3135 29.4325 22.3135C28.7066 22.3135 28.0105 22.6018 27.4972 23.1151C26.9839 23.6284 26.6955 24.3246 26.6955 25.0505V26.6025H27.5475Z" fill="#656766"/>
<path d="M29.4337 30.5607C30.034 30.5607 30.5207 30.0741 30.5207 29.4737C30.5207 28.8734 30.034 28.3867 29.4337 28.3867C28.8333 28.3867 28.3467 28.8734 28.3467 29.4737C28.3467 30.0741 28.8333 30.5607 29.4337 30.5607Z" fill="#E7E3E6"/>
</svg>
